<svg xmlns="http://www.w3.org/2000/svg" viewBox="0 0 391.76 395.61"><defs><style>.cls-1,.cls-7{fill:#262626;}.cls-1,.cls-3{stroke:#fff;stroke-linejoin:round;stroke-width:2px;}.cls-2{fill:#fff;}.cls-3,.cls-6{fill:none;}.cls-4{fill:#030000;}.cls-5{fill:#f9f9f9;}</style></defs><g id="Layer_3" data-name="Layer 3"><path class="cls-1" d="M1522.92,444.29a377.12,377.12,0,0,1-151.11-35.36l-1.26-.59-1.26.59a377.4,377.4,0,0,1-149.77,35.32l-.73,0-3,.07.1,3c0,.11,0,.21,0,.32,2.74,86.47,32.2,167.5,81.82,230.3l0,.07a1.13,1.13,0,0,0,.1.13c.16.22.34.44.52.66q1.32,1.68,2.68,3.34c.44.55.9,1.1,1.35,1.64l0,.06,3.24-5.53,0-.06c-.46-.54-.91-1.09-1.34-1.64q-1.35-1.67-2.67-3.36l-.53-.67-.1-.12,0-.07c-47.44-60.89-75.79-138.92-79-222.25A383.23,383.23,0,0,0,1370.55,415a383,383,0,0,0,149.2,35.26,405.28,405.28,0,0,1-7.61,64.23c-.63,3.18-1.3,6.36-2,9.51a.4.4,0,0,1,0,.15l.13.06a9.81,9.81,0,0,0,1.08.37,7.86,7.86,0,0,1-1.27-.16c-.12.58-.26,1.16-.39,1.74q-2.54,10.95-5.67,21.66c-.69,2.38-1.41,4.74-2.15,7.1h0c.71,2.57,1.61,5.09,2.54,7.67.23.64.46,1.25.68,1.83q.92-2.68,1.77-5.4a407.88,407.88,0,0,0,19-111.59l.1-3ZM1325.23,700.35c-.48-.49-1-1-1.42-1.48-1-1-1.92-2-2.87-3l-.56-.61-.1-.11-3.18,5.41.11.11c.19.2.37.41.56.6l2.88,3c.47.49.95,1,1.43,1.46l.06.06,3.15-5.37ZM1381,732l-1.33,1c-1.77,1.35-3.56,2.69-5.37,4-.89.66-1.78,1.31-2.68,1.94.74,0,1.49,0,2.26,0h7.84c.87-.64,1.73-1.3,2.59-2,1.72-1.31,3.43-2.65,5.12-4l1.27-1Zm120.22-175.27a381.29,381.29,0,0,1-18.28,46.67,363.54,363.54,0,0,1-38.57,64.26c-.25.35-.51.69-.78,1-1,1.34-2,2.67-3.08,4-.5.66-1,1.31-1.54,2h7.62c.5-.65,1-1.3,1.49-2q1.53-2,3-4c.27-.35.52-.69.77-1a368.28,368.28,0,0,0,32-52.38A384,384,0,0,0,1504.47,566,91.7,91.7,0,0,1,1501.21,556.77Zm-89,148q-3,3-6.12,5.93c-.36.35-.72.7-1.09,1-1.44,1.35-2.89,2.69-4.35,4-.73.67-1.47,1.33-2.21,2h8.95c.71-.64,1.42-1.3,2.12-2,1.41-1.31,2.81-2.65,4.19-4l1-1q3-2.92,5.9-5.93Zm8.76-9c-.32.35-.65.69-1,1-1.27,1.35-2.54,2.68-3.83,4-.64.66-1.28,1.32-1.94,2h8.37c.64-.65,1.26-1.31,1.87-2,1.25-1.32,2.49-2.66,3.7-4,.32-.34.64-.69.94-1Zm-46.29,45.38a50.57,50.57,0,0,1-14.42-1.88c2.94,2.22,5.91,4.37,8.93,6.48l1.72,1.2,1.72-1.2c2.15-1.51,4.29-3,6.4-4.6Zm-7.94-4.54q-4.68-3.43-9.23-7c-.74-.57-1.47-1.15-2.2-1.75a22.12,22.12,0,0,1-4.3-3.24,10.52,10.52,0,0,1-.75-.9c-.15-.12-.29-.24-.44-.38q-3.64-3-7.2-6.23-2.53-2.25-5-4.57l0,0q-5.54-5.13-10.83-10.54l-3.15,5.36q8.28,8.38,17.15,16.15a31.53,31.53,0,0,1-1.33-3.22,38.92,38.92,0,0,1-1.71-7,37.13,37.13,0,0,0,1.42,5.3,29.85,29.85,0,0,0,2.89,6q6.75,5.87,13.81,11.35c.64.28,1.29.53,2,.77a43.51,43.51,0,0,0,12.25,2.33C1368.88,738.13,1367.78,737.33,1366.69,736.53Z" transform="translate(-1183 -389.47)"/><path class="cls-1" d="M1507.55,573.24c-.18-.4-.35-.81-.53-1.21l-.12.32a410.77,410.77,0,0,1-20.56,46.18A394.21,394.21,0,0,1,1456,667.7c-.24.35-.49.7-.75,1q-1.45,2-3,4t-3,4q-2,2.65-4.12,5.26l-8.67,13.69h-2.76c-.29.35-.59.69-.9,1-1.18,1.34-2.38,2.68-3.59,4-.59.66-1.19,1.32-1.81,2h8.11c.6-.65,1.18-1.31,1.75-2q3.72-4.19,7.27-8.48,6.26-7.5,12.12-15.33l5.18-8.17h.78A402.53,402.53,0,0,0,1495,614.8q8.54-17.12,15.55-35.15C1509.75,578,1508.78,576,1507.55,573.24Zm-82,131.48q-2.8,3-5.68,5.93c-.33.34-.67.69-1,1-1.31,1.35-2.65,2.68-4,4-.67.66-1.34,1.32-2,2h8.54c.66-.64,1.31-1.3,2-2,1.3-1.32,2.59-2.64,3.86-4,.32-.33.63-.65.93-1q2.83-3,5.58-6ZM1397.1,732l-1.22,1q-2.37,2-4.78,4l-2.4,2h9.41l2.33-2c1.55-1.32,3.08-2.66,4.6-4l1.15-1Zm-11,9c-2.82,2.25-5.67,4.43-8.56,6.57l-1.39,1c-1.67,1.24-3.36,2.45-5,3.65l-.13-.09c-1.66-1.17-3.29-2.36-4.93-3.56l-1.38-1a355.83,355.83,0,0,1-42.85-37.5l-.1.17-3,5.19a361.54,361.54,0,0,0,36.08,32.14c.44.36.89.7,1.33,1q2.63,2,5.29,4c.89.67,1.78,1.32,2.68,2h14.11c.89-.65,1.78-1.3,2.67-2q2.67-2,5.3-4l1.34-1q4.14-3.23,8.19-6.57Zm-65.76-32.43c-.48-.5-1-1-1.42-1.5-1-1-1.92-2-2.86-3l-.56-.61-.1-.11-.1.17-3.07,5.23.1.11.56.61c.95,1,1.91,2,2.87,3,.44.46.88.92,1.33,1.37l.1.11.06.06,3.15-5.37Zm216.87-278.92a412.37,412.37,0,0,1-165.19-38.67l-1.26-.58-.13.06-1.14.52a412.31,412.31,0,0,1-144,37.62l-4.81.33q-5.16.31-10.33.52l-1.15,0-2.78.09h-.26l-1,0h-.47l-2.75.07.07,2.5v.52c3,95.34,35.65,184.64,90.73,253.53l0,.07.1.12c.16.22.34.45.53.67q1.32,1.67,2.7,3.31c.4.51.81,1,1.24,1.51l.1.12,0,.06,3.23-5.5,0-.06c-.45-.55-.91-1.1-1.34-1.65q-1.37-1.65-2.68-3.33c-.19-.22-.37-.45-.53-.67l-.1-.12,0-.07c-52.07-65.95-83.51-150.62-87.72-241.22,0-.1,0-.2,0-.3l-.15-3.65,3.23-.12h.25l1.38-.06.6,0c1.51-.07,3-.14,4.52-.23l.59,0c1.65-.09,3.3-.2,4.94-.31l5.12-.38.28,0,5.07-.45,4.41-.44a418.88,418.88,0,0,0,132.09-36.38l.13-.06a418.17,418.17,0,0,0,163.28,38.55,438.48,438.48,0,0,1-24.32,128.87c-.68,1.93-1.38,3.86-2.08,5.78,1.37,2.71,2.62,4.6,3.68,6.57l.15.28c.78-2,1.53-4,2.27-6.08a443.89,443.89,0,0,0,26.4-138.24l.1-3Z" transform="translate(-1183 -389.47)"/><path class="cls-1" d="M1304,667.7l-2.82,4.8-.07.12-3.18,5.43-.07.13-1.57,2.66-.07.12-3.18,5.42-.07.12-28.55,48.67-.25.42-.13-.22-37.46-66.63-.58-1h-42l.6,1,58.31,101.5a34.34,34.34,0,0,0,8,9.58,19.17,19.17,0,0,0,11.65,4.24c.26,0,.52,0,.79,0h.13l.94,0a19,19,0,0,0,12.15-4.54,41,41,0,0,0,7.88-9.14l33-56.31,3.15-5.37,1.71-2.92,3.15-5.37,18.59-31.67.61-1Zm-82.1,7,38.28,68.06.26.46.17.3,3.31,5.89.13.23,3.13-5.34.26-.44.17-.29,30.15-51.4,3.23-5.5,1.64-2.79,3.24-5.53,2.14-3.65h24.44l-1.2,2-10.79,18.39-.07.11-3.11,5.3-.06.11-1.61,2.75-.07.11-3.1,5.29-.07.11-33.91,57.78a33.7,33.7,0,0,1-6.5,7.54,11.26,11.26,0,0,1-4.35,2.33l-.17,0a1.1,1.1,0,0,1-.26.06,14.57,14.57,0,0,1-3.6.42h-.26c-.21,0-.42,0-.62,0a16.66,16.66,0,0,1-2.09-.24l-.17,0-.26,0a11.29,11.29,0,0,1-4.85-2.32c-.55-.45-1.09-.93-1.61-1.45a28,28,0,0,1-4.72-6.19L1196.1,674.7Z" transform="translate(-1183 -389.47)"/><path class="cls-1" d="M1376.54,695.69a20.14,20.14,0,0,0-6.38.88,11.18,11.18,0,0,0-2.75,1.35,8.08,8.08,0,0,0-2.68,3.12,12.09,12.09,0,0,0-1.17,5.55,14.45,14.45,0,0,0,.39,3.47,14.75,14.75,0,0,1-.12-1.94,12.11,12.11,0,0,1,1.57-6.4,8.35,8.35,0,0,1,2.49-2.68,11.4,11.4,0,0,1,3.2-1.51h0a21,21,0,0,1,6.2-.81H1420c.32-.34.65-.68,1-1ZM1373.87,732a40.92,40.92,0,0,1-13.76-2,28.09,28.09,0,0,1-4.85-2.25c.73.6,1.46,1.18,2.2,1.75a27,27,0,0,0,3.58,1.56,40.55,40.55,0,0,0,13.59,2h5l1.33-1Zm2.67-36.35a20.14,20.14,0,0,0-6.38.88,11.18,11.18,0,0,0-2.75,1.35,8.08,8.08,0,0,0-2.68,3.12,12.09,12.09,0,0,0-1.17,5.55,14.45,14.45,0,0,0,.39,3.47,14.75,14.75,0,0,1-.12-1.94,12.11,12.11,0,0,1,1.57-6.4,8.35,8.35,0,0,1,2.49-2.68,11.4,11.4,0,0,1,3.2-1.51h0a21,21,0,0,1,6.2-.81H1420c.32-.34.65-.68,1-1ZM1373.87,732a40.92,40.92,0,0,1-13.76-2,28.09,28.09,0,0,1-4.85-2.25c.73.6,1.46,1.18,2.2,1.75a27,27,0,0,0,3.58,1.56,40.55,40.55,0,0,0,13.59,2h5l1.33-1Zm2.67-36.35a20.14,20.14,0,0,0-6.38.88,11.18,11.18,0,0,0-2.75,1.35,8.08,8.08,0,0,0-2.68,3.12,12.09,12.09,0,0,0-1.17,5.55,14.45,14.45,0,0,0,.39,3.47,14.75,14.75,0,0,1-.12-1.94,12.11,12.11,0,0,1,1.57-6.4,8.35,8.35,0,0,1,2.49-2.68,11.4,11.4,0,0,1,3.2-1.51h0a21,21,0,0,1,6.2-.81H1420c.32-.34.65-.68,1-1ZM1373.87,732a40.92,40.92,0,0,1-13.76-2,28.09,28.09,0,0,1-4.85-2.25c.73.6,1.46,1.18,2.2,1.75a27,27,0,0,0,3.58,1.56,40.55,40.55,0,0,0,13.59,2h5l1.33-1Zm2.67-36.35a20.14,20.14,0,0,0-6.38.88,11.18,11.18,0,0,0-2.75,1.35,8.08,8.08,0,0,0-2.68,3.12,12.09,12.09,0,0,0-1.17,5.55,14.45,14.45,0,0,0,.39,3.47,14.75,14.75,0,0,1-.12-1.94,12.11,12.11,0,0,1,1.57-6.4,8.35,8.35,0,0,1,2.49-2.68,11.4,11.4,0,0,1,3.2-1.51h0a21,21,0,0,1,6.2-.81H1420c.32-.34.65-.68,1-1Zm0,0a20.14,20.14,0,0,0-6.38.88,11.18,11.18,0,0,0-2.75,1.35,8.08,8.08,0,0,0-2.68,3.12,12.09,12.09,0,0,0-1.17,5.55,14.45,14.45,0,0,0,.39,3.47,14.75,14.75,0,0,1-.12-1.94,12.11,12.11,0,0,1,1.57-6.4,8.35,8.35,0,0,1,2.49-2.68,11.4,11.4,0,0,1,3.2-1.51h0a21,21,0,0,1,6.2-.81H1420c.32-.34.65-.68,1-1Zm0,0a20.14,20.14,0,0,0-6.38.88,11.18,11.18,0,0,0-2.75,1.35,8.08,8.08,0,0,0-2.68,3.12,12.09,12.09,0,0,0-1.17,5.55,14.45,14.45,0,0,0,.39,3.47,14.75,14.75,0,0,1-.12-1.94,12.11,12.11,0,0,1,1.57-6.4,8.35,8.35,0,0,1,2.49-2.68,11.4,11.4,0,0,1,3.2-1.51h0a21,21,0,0,1,6.2-.81H1420c.32-.34.65-.68,1-1Zm0,0a20.14,20.14,0,0,0-6.38.88,11.18,11.18,0,0,0-2.75,1.35,8.08,8.08,0,0,0-2.68,3.12l.67.68a8.35,8.35,0,0,1,2.49-2.68,11.4,11.4,0,0,1,3.2-1.51h0a21,21,0,0,1,6.2-.81H1420c.32-.34.65-.68,1-1Zm-6.38.88a11.18,11.18,0,0,0-2.75,1.35,8.08,8.08,0,0,0-2.68,3.12l.67.68a8.35,8.35,0,0,1,2.49-2.68,11.4,11.4,0,0,1,3.2-1.51Zm82.17,22.24c-5.76-4.94-13.88-7.65-24.17-8.09-1-.05-2-.07-3.06-.07h-48.56a11.18,11.18,0,0,1-4.48-.69,3.49,3.49,0,0,1-.61-.34c-.73-.53-.89-1.94-.89-3,0-.88.11-2.42.82-2.91.54-.37,1.92-1,5.16-1h63.83l16.34-25.78,5.18-8.17.66-1h-83.88a59.22,59.22,0,0,0-18.51,2.6,34.9,34.9,0,0,0-13.18,7.53,30,30,0,0,0-7.7,11.9,44.66,44.66,0,0,0-2.4,14.93,43.89,43.89,0,0,0,.65,7.73c0,.25.08.5.13.75a37.13,37.13,0,0,0,1.42,5.3,29.85,29.85,0,0,0,2.89,6,27.41,27.41,0,0,0,4.11,5.06,31,31,0,0,0,9.7,6.29c.64.28,1.29.53,2,.77a43.51,43.51,0,0,0,12.25,2.33c.53.05,1.07.07,1.62.09.74,0,1.49,0,2.26,0h48.56c3.25,0,4.56.65,5,1a3.6,3.6,0,0,1,.91,2.64,5.24,5.24,0,0,1,0,.55c0,1.15-.17,2.66-1,3.32-.49.4-1.79,1.06-5,1.06H1353l-22.24,34.67h89.53a59.53,59.53,0,0,0,18.51-2.59,34.6,34.6,0,0,0,13.27-7.72,29.91,29.91,0,0,0,7.7-12.54,51.65,51.65,0,0,0,2.31-15.88c0-9.42-2.46-16.93-7.33-22.38A23.85,23.85,0,0,0,1452.33,718.81Zm.79,38.49a23,23,0,0,1-5.9,9.66,27.59,27.59,0,0,1-10.61,6.11,52.49,52.49,0,0,1-16.31,2.24h-76.72l13.26-20.67h65.59c4.16,0,7.24-.86,9.42-2.63a10.13,10.13,0,0,0,3.51-7.42c0-.43.05-.87.05-1.33a11.44,11.44,0,0,0-2.09-7.17l0-.05a8.41,8.41,0,0,0-1.49-1.49c-2.17-1.69-5.23-2.51-9.36-2.51h-48.56a40.92,40.92,0,0,1-13.76-2,28.09,28.09,0,0,1-4.85-2.25,22.12,22.12,0,0,1-4.3-3.24,15.83,15.83,0,0,1-1.19-1.28,21.41,21.41,0,0,1-4.09-7.09,34.89,34.89,0,0,1-1.8-11.47,37.43,37.43,0,0,1,2-12.58,23.21,23.21,0,0,1,3.6-6.61,21.44,21.44,0,0,1,2.31-2.55,23.29,23.29,0,0,1,2.8-2.24,31.33,31.33,0,0,1,7.77-3.74,52.49,52.49,0,0,1,16.31-2.24h71.15l-1.29,2-3.34,5.26-8.67,13.69h-60a20.14,20.14,0,0,0-6.38.88,11.18,11.18,0,0,0-2.75,1.35,8.08,8.08,0,0,0-2.68,3.12,12.09,12.09,0,0,0-1.17,5.55,14.45,14.45,0,0,0,.39,3.47,8.8,8.8,0,0,0,3.4,5.23c2.18,1.59,5.19,2.36,9.19,2.36h48.56c8.31,0,15,1.5,19.86,4.46a20.65,20.65,0,0,1,2.81,2,18.31,18.31,0,0,1,2.48,2.58,22.62,22.62,0,0,1,4.45,11.12,39.92,39.92,0,0,1,.39,5.76A44.47,44.47,0,0,1,1453.12,757.3Zm-76.58-61.61a20.14,20.14,0,0,0-6.38.88,11.18,11.18,0,0,0-2.75,1.35,8.08,8.08,0,0,0-2.68,3.12l.67.68a8.35,8.35,0,0,1,2.49-2.68,11.4,11.4,0,0,1,3.2-1.51h0a21,21,0,0,1,6.2-.81H1420c.32-.34.65-.68,1-1Zm0,0a20.14,20.14,0,0,0-6.38.88,11.18,11.18,0,0,0-2.75,1.35,8.08,8.08,0,0,0-2.68,3.12l.67.68a8.35,8.35,0,0,1,2.49-2.68,11.4,11.4,0,0,1,3.2-1.51h0a21,21,0,0,1,6.2-.81H1420c.32-.34.65-.68,1-1Zm0,0a20.14,20.14,0,0,0-6.38.88,11.18,11.18,0,0,0-2.75,1.35,8.08,8.08,0,0,0-2.68,3.12,12.09,12.09,0,0,0-1.17,5.55,14.45,14.45,0,0,0,.39,3.47,14.75,14.75,0,0,1-.12-1.94,12.11,12.11,0,0,1,1.57-6.4,8.35,8.35,0,0,1,2.49-2.68,11.4,11.4,0,0,1,3.2-1.51h0a21,21,0,0,1,6.2-.81H1420c.32-.34.65-.68,1-1Zm0,0a20.14,20.14,0,0,0-6.38.88,11.18,11.18,0,0,0-2.75,1.35,8.08,8.08,0,0,0-2.68,3.12,12.09,12.09,0,0,0-1.17,5.55,14.45,14.45,0,0,0,.39,3.47,14.75,14.75,0,0,1-.12-1.94,12.11,12.11,0,0,1,1.57-6.4,8.35,8.35,0,0,1,2.49-2.68,11.4,11.4,0,0,1,3.2-1.51h0a21,21,0,0,1,6.2-.81H1420c.32-.34.65-.68,1-1ZM1373.87,732a40.92,40.92,0,0,1-13.76-2,28.09,28.09,0,0,1-4.85-2.25c.73.6,1.46,1.18,2.2,1.75a27,27,0,0,0,3.58,1.56,40.55,40.55,0,0,0,13.59,2h5l1.33-1Zm2.67-36.35a20.14,20.14,0,0,0-6.38.88,11.18,11.18,0,0,0-2.75,1.35,8.08,8.08,0,0,0-2.68,3.12,12.09,12.09,0,0,0-1.17,5.55,14.45,14.45,0,0,0,.39,3.47,14.75,14.75,0,0,1-.12-1.94,12.11,12.11,0,0,1,1.57-6.4,8.35,8.35,0,0,1,2.49-2.68,11.4,11.4,0,0,1,3.2-1.51h0a21,21,0,0,1,6.2-.81H1420c.32-.34.65-.68,1-1ZM1373.87,732a40.92,40.92,0,0,1-13.76-2,28.09,28.09,0,0,1-4.85-2.25c.73.6,1.46,1.18,2.2,1.75a27,27,0,0,0,3.58,1.56,40.55,40.55,0,0,0,13.59,2h5l1.33-1Zm2.67-36.35a20.14,20.14,0,0,0-6.38.88,11.18,11.18,0,0,0-2.75,1.35,8.08,8.08,0,0,0-2.68,3.12,12.09,12.09,0,0,0-1.17,5.55,14.45,14.45,0,0,0,.39,3.47,14.75,14.75,0,0,1-.12-1.94,12.11,12.11,0,0,1,1.57-6.4,8.35,8.35,0,0,1,2.49-2.68,11.4,11.4,0,0,1,3.2-1.51h0a21,21,0,0,1,6.2-.81H1420c.32-.34.65-.68,1-1ZM1373.87,732a40.92,40.92,0,0,1-13.76-2,28.09,28.09,0,0,1-4.85-2.25c.73.6,1.46,1.18,2.2,1.75a27,27,0,0,0,3.58,1.56,40.55,40.55,0,0,0,13.59,2h5l1.33-1Zm2.67-36.35a20.14,20.14,0,0,0-6.38.88,11.18,11.18,0,0,0-2.75,1.35,8.08,8.08,0,0,0-2.68,3.12,12.09,12.09,0,0,0-1.17,5.55,14.45,14.45,0,0,0,.39,3.47,14.75,14.75,0,0,1-.12-1.94,12.11,12.11,0,0,1,1.57-6.4,8.35,8.35,0,0,1,2.49-2.68,11.4,11.4,0,0,1,3.2-1.51h0a21,21,0,0,1,6.2-.81H1420c.32-.34.65-.68,1-1ZM1373.87,732a40.92,40.92,0,0,1-13.76-2,28.09,28.09,0,0,1-4.85-2.25c.73.6,1.46,1.18,2.2,1.75a27,27,0,0,0,3.58,1.56,40.55,40.55,0,0,0,13.59,2h5l1.33-1Zm2.67-36.35a20.14,20.14,0,0,0-6.38.88,11.18,11.18,0,0,0-2.75,1.35,8.08,8.08,0,0,0-2.68,3.12,12.09,12.09,0,0,0-1.17,5.55,14.45,14.45,0,0,0,.39,3.47,14.75,14.75,0,0,1-.12-1.94,12.11,12.11,0,0,1,1.57-6.4,8.35,8.35,0,0,1,2.49-2.68,11.4,11.4,0,0,1,3.2-1.51h0a21,21,0,0,1,6.2-.81H1420c.32-.34.65-.68,1-1Z" transform="translate(-1183 -389.47)"/><path class="cls-2" d="M1455.09,743.58a44.47,44.47,0,0,1-2,13.72,23,23,0,0,1-5.9,9.66,27.59,27.59,0,0,1-10.61,6.11,52.49,52.49,0,0,1-16.31,2.24h-76.72l13.26-20.67h65.59c4.16,0,7.24-.86,9.42-2.63a10.13,10.13,0,0,0,3.51-7.42l1.23-1.48,13.06-15.69.6-.72a22.62,22.62,0,0,1,4.45,11.12A39.92,39.92,0,0,1,1455.09,743.58Z" transform="translate(-1183 -389.47)"/><path class="cls-2" d="M1445,722.11l-1,1.15-10.68,12.82h0l0-.05a8.41,8.41,0,0,0-1.49-1.49c-2.17-1.69-5.23-2.51-9.36-2.51h-48.56a40.92,40.92,0,0,1-13.76-2,28.09,28.09,0,0,1-4.85-2.25,22.12,22.12,0,0,1-4.3-3.24,10.52,10.52,0,0,1-.75-.9c-.15-.12-.29-.24-.44-.38a21.41,21.41,0,0,1-4.09-7.09,34.89,34.89,0,0,1-1.8-11.47,37.43,37.43,0,0,1,2-12.58,23.21,23.21,0,0,1,3.6-6.61l1.45,1.47,13.8,14.1a12.09,12.09,0,0,0-1.17,5.55,14.45,14.45,0,0,0,.39,3.47,8.8,8.8,0,0,0,3.4,5.23c2.18,1.59,5.19,2.36,9.19,2.36h48.56C1433.41,717.65,1440.07,719.15,1445,722.11Z" transform="translate(-1183 -389.47)"/><path class="cls-2" d="M1449.82,674.7l-1.29,2-3.34,5.26-8.67,13.69h-60a20.14,20.14,0,0,0-6.38.88l-14-14.29-1.57-1.6a31.33,31.33,0,0,1,7.77-3.74,52.49,52.49,0,0,1,16.31-2.24Z" transform="translate(-1183 -389.47)"/><path class="cls-1" d="M1501.72,747.64V667.7H1467.1V782.31h84.26l21.73-33.64.67-1Zm57.87,9-12,18.64H1474.1V674.7h20.62v79.94h66.18Z" transform="translate(-1183 -389.47)"/><polygon class="cls-2" points="377.9 365.17 376.59 367.2 364.55 385.84 296.3 385.84 314.91 367.2 316.93 365.17 377.9 365.17"/><polygon class="cls-2" points="311.72 285.23 311.72 360.48 292.63 379.61 291.1 381.14 291.1 285.23 311.72 285.23"/><path class="cls-1" d="M1386.65,547.34c0-.12,0-.24,0-.33a2.52,2.52,0,0,0-.06-.48c-.06-.3-.12-.59-.19-.86a7.45,7.45,0,0,0-1.38-2.37,5.81,5.81,0,0,0-.54-.58c-5.83-5.83-13.11-13.41-9.49-25.23h-.26c-3.62,11.82,3.66,19.39,9.49,25.22a5.81,5.81,0,0,1,.54.58,7.45,7.45,0,0,1,1.38,2.37c.07.27.13.56.19.86a2.52,2.52,0,0,1,.06.48c0,.09,0,.21,0,.33a68.07,68.07,0,0,1-14.67,2A67.89,67.89,0,0,0,1386.65,547.34Zm3.64,32a5.54,5.54,0,0,1-.07.57l.23.27c0-.32.08-.64.11-1Zm-3.64-32c0-.12,0-.24,0-.33a2.52,2.52,0,0,0-.06-.48c-.06-.3-.12-.59-.19-.86a7.45,7.45,0,0,0-1.38-2.37,5.81,5.81,0,0,0-.54-.58c-5.83-5.83-13.11-13.41-9.49-25.23h-.26c-3.62,11.82,3.66,19.39,9.49,25.22a5.81,5.81,0,0,1,.54.58,7.45,7.45,0,0,1,1.38,2.37c.07.27.13.56.19.86a2.52,2.52,0,0,1,.06.48c0,.09,0,.21,0,.33a68.07,68.07,0,0,1-14.67,2A67.89,67.89,0,0,0,1386.65,547.34Zm3.64,32a5.54,5.54,0,0,1-.07.57l.23.27c0-.32.08-.64.11-1Zm-3.64-32c0-.12,0-.24,0-.33a2.52,2.52,0,0,0-.06-.48c-.06-.3-.12-.59-.19-.86a7.45,7.45,0,0,0-1.38-2.37,5.81,5.81,0,0,0-.54-.58c-5.83-5.83-13.11-13.41-9.49-25.23h-.26c-3.62,11.82,3.66,19.39,9.49,25.22a5.81,5.81,0,0,1,.54.58,7.45,7.45,0,0,1,1.38,2.37c.07.27.13.56.19.86a2.52,2.52,0,0,1,.06.48c0,.09,0,.21,0,.33a68.07,68.07,0,0,1-14.67,2A67.89,67.89,0,0,0,1386.65,547.34Zm3.64,32a5.54,5.54,0,0,1-.07.57l.23.27c0-.32.08-.64.11-1Zm64.94-58c-.67-6.24-2.69-11.43-6-17.43-18.27-33.71-52.22-50.71-54.73-51.94a132.41,132.41,0,0,0-15.13-6.22,22.29,22.29,0,0,0-7.23-1.2h-.09c-.27,0-.55,0-.82,0a22.48,22.48,0,0,0-5.68,1,126.32,126.32,0,0,0-16,6.22c-32.46,15.27-47.19,39.64-56,54.25-3.41,5.63-6.5,11.71-6.79,19.76a36,36,0,0,0,3.26,16,19.25,19.25,0,0,0,2.72,4.35c-6.67,9.55-6.73,24.2-6.28,31.68a15.41,15.41,0,0,0,1.63,6,61.92,61.92,0,0,0,4.77,7.84c-.56,4.81-.84,7.68-.84,7.68a39.89,39.89,0,0,0,1.58,12l0,.11a34.05,34.05,0,0,0,4.73,10.08l.06.09a29.23,29.23,0,0,0,11.39,9.68c.45.21,1,.43,1.47.64a27.25,27.25,0,0,0-7.6,8.8,13.66,13.66,0,0,0-1.22,10.11c1.49,5.53,5.33,7,11.71,7.34l1.34,0h2.86l2,0,2.09-.06h.07l3.38-.1,1.2,0c2.41-.06,5-.09,7.78,0h1.87c.65,0,1.27,0,1.86-.07h0c9.1-.5,12.15-3.66,14.45-6a18.9,18.9,0,0,0,3.43-4.91,16,16,0,0,0,1.33-3.89s0,0,0-.06a46,46,0,0,0,10.61,1.43h1.14a45.89,45.89,0,0,0,11-1.51l.25-.06a16.29,16.29,0,0,0,1.35,4.08,18.43,18.43,0,0,0,3.43,4.91c2.27,2.32,5.28,5.43,14.19,6h0c.6,0,1.22.06,1.87.07h1.61c2.87,0,5.55,0,8,0l1.2,0,3.41.1,2.13.06,2,0h2.86l1.34,0c6.53-.26,10.45-1.73,12-7.34a13.85,13.85,0,0,0-1.2-10.11,27.38,27.38,0,0,0-7.16-8.45c.81-.31,1.57-.64,2.31-1,19.1-9.24,17.78-31.95,17.78-31.95s-.3-3-.87-8.08c-.07-.27-.13-.55-.19-.83s-.17-.85-.23-1.26a24.27,24.27,0,0,0,5.12-5.82l0-.05,0,0a.36.36,0,0,1,0-.09l.07-.18a14.88,14.88,0,0,0,1.27-5.15c.36-6.12.4-17-3.26-26l0-.1a29.76,29.76,0,0,0-1.73-3.6,19.6,19.6,0,0,0,3.68-5.71,46.74,46.74,0,0,0,1.63-4.59c0-.05,0-.09,0-.14A41.84,41.84,0,0,0,1455.23,521.39Zm-79.47,46.41c-1.09.05-2.19.08-3.29.1-.89,0-1.78,0-2.67,0-.64,0-1.28,0-1.91,0s-1.29,0-1.93-.06l-1.69-.08a115.1,115.1,0,0,1-11.48-1.25c.49-.2,1-.39,1.49-.56l0,0c.42-.16.85-.3,1.3-.43a2.06,2.06,0,0,1,.35-.12c.48-.16,1-.3,1.45-.43s.86-.23,1.3-.34l.09,0c2.58.34,5.15.58,7.7.7.86,0,1.72.07,2.57.08h2.47l1.92-.05c.73,0,1.45-.06,2.17-.1,1.76-.12,3.55-.29,5.46-.53l.18,0c.87.21,1.72.45,2.56.71.41.12.81.26,1.21.39.09,0,.19.06.27.1l1,.34a4.58,4.58,0,0,1,.46.2c.24.08.48.19.72.28-.63.1-1.27.18-1.9.27Q1380.69,567.59,1375.76,567.8Zm-76.92-44.66a22.26,22.26,0,0,1-.66-3.39c1-3.52,2.86-6.91,5.14-11.05,0,0,5.53-10.05,18.08-19.3.31-.24.63-.47,1-.7a42.86,42.86,0,0,0-7.27,9.24c-4.81,8.28-8.82,20.69-12.06,34l-.19-.29A29.47,29.47,0,0,1,1298.84,523.14Zm51.23,41.36c-.35.15-.7.31-1,.48l-.13.06c-.36.17-.71.37-1.05.55l-.18,0a114.27,114.27,0,0,1-35.88-14.17,16.88,16.88,0,0,0-.32-2.2l0-.12c-.07-1-.12-1.86-.16-2.7,0-.45,0-.87-.09-1.28a1.48,1.48,0,0,0,0-.21l.58.45a5.25,5.25,0,0,0,.53.43c.37.3.76.59,1.14.88s1.06.8,1.6,1.18l.25.18c.86.61,1.73,1.21,2.64,1.8.57.35,1.13.72,1.71,1.07.12.08.24.17.37.24l.4.22c.66.41,1.32.8,2,1.19a2.6,2.6,0,0,0,.24.13c.74.42,1.48.82,2.23,1.22s1.69.87,2.55,1.29l.28.14,1.57.74c.17.09.35.16.53.24l.62.29a.28.28,0,0,1,.09.05c.12,0,.24.11.36.15l.38.17,1.18.5.07,0,.17.07a5.35,5.35,0,0,1,.52.22l1,.38c.62.24,1.24.49,1.89.73.46.18.94.36,1.42.52l0,0c.1,0,.18.07.28.09a3,3,0,0,0,.35.13l.16,0,.07,0,.59.2.11,0c.45.17.92.33,1.39.47l.45.14h0l.23.08.23.07.48.14c.25.09.5.17.76.24l.35.11.12,0,.63.19h0l.6.17h0c.54.16,1.07.3,1.61.44a.4.4,0,0,0,.13,0l.63.17.54.14.08,0h.06l.23.07a.59.59,0,0,1,.2,0h0c.13,0,.26.05.38.09l.41.08.47.12.45.1h0l1.76.38c.34.09.66.16,1,.22C1351.59,563.83,1350.82,564.15,1350.07,564.5Zm61.27-83.61h0a76.28,76.28,0,0,0-18.62-5.55c-1-.16-2.12-.32-3.22-.45a68.21,68.21,0,0,0-7-.49c-1.26,0-2.48,0-3.64,0,1.31-.19,2.82-.35,4.49-.44.55,0,1.12-.05,1.71-.06h1.87a49.3,49.3,0,0,1,17.66,3.47,48.07,48.07,0,0,1,7.74,4ZM1442,513.8a23.13,23.13,0,0,1,.15,3.12c0,.41,0,.8-.06,1.23a28.16,28.16,0,0,1-5,13.84c0-.1,0-.19-.07-.29-3.22-13.23-7.2-25.53-12-33.76a42.92,42.92,0,0,0-4.64-6.48l-.35-.4C1429.58,497.15,1438.09,504.79,1442,513.8Zm-13.44,31.48c0,.39,0,.78-.08,1.19-.06.89-.12,1.86-.18,2.88,0,0,0,.08,0,.12-.07.92-.15,1.89-.27,2.92a115.18,115.18,0,0,1-32.25,12.72h-.23c-.24,0-.47,0-.72,0h-.78a19,19,0,0,0-1.94.13l-.7.08,0,0a35.36,35.36,0,0,0-3.75-1.69l.9-.19c.83-.17,1.67-.36,2.5-.55l1.24-.3.42-.1.83-.22,1.81-.49.11,0c.37-.09.73-.2,1.1-.31l.32-.09L1398,561c.67-.2,1.34-.42,2-.64l.85-.28.46-.17.1,0c1.25-.44,2.49-.9,3.71-1.38a5.66,5.66,0,0,0,.72-.28l.33-.13,1-.41h0l.22-.1h0l.06,0,.37-.15.71-.31c1.16-.49,2.3-1,3.42-1.54.33-.16.66-.31,1-.48.47-.21.92-.44,1.37-.68.23-.11.46-.23.67-.35h0l.32-.16.33-.18h0l.15-.09.73-.39,1.28-.71c.4-.21.79-.44,1.17-.67l.49-.28,1.2-.73c1-.63,2-1.27,3-1.93l.67-.46c.5-.34,1-.7,1.48-1.06.19-.14.38-.27.57-.42s.31-.22.47-.34l.67-.52c.2-.15.39-.31.59-.45l.16-.13.27-.22Zm-34.31,41.86a24.27,24.27,0,0,1-2.56-2.69,23.54,23.54,0,0,1-1.6-2.16c-.51-.76-1-1.51-1.35-2.25-.26-.48-.49-1-.71-1.43-.11-.23-.22-.47-.31-.7a22.82,22.82,0,0,1-.91-2.41c-.1-.29-.19-.57-.27-.85.43.72.93,1.49,1.48,2.31.4.59.84,1.2,1.31,1.82a.18.18,0,0,0,.05.07l.44.57a.47.47,0,0,0,.06.09l.3.41.23.27c.48.61,1,1.23,1.56,1.85q.32.36.66.72c.35.38.72.76,1.11,1.15l.24.25a45,45,0,0,0,6.48,5.33,47.16,47.16,0,0,0,14.35,6.41s-.15,0-.4,0A36.43,36.43,0,0,1,1394.29,587.14ZM1427.73,562l0,.13a83.32,83.32,0,0,1-2.87,9.06l-.25,0a74.13,74.13,0,0,1-12.41-1.89l-.17,0-1.31-.33c-3.23-.86-5.76-1.79-8.17-2.52a117.68,117.68,0,0,0,26.37-11.13l.28-.16c-.2,1.28-.64,3.74-1.44,6.89Zm6.9-15.43c-1.07,1.16-2.21,2.27-3.42,3.37h0c0-.09,0-.17,0-.25,0-.56.09-1.09.12-1.61a.49.49,0,0,1,0-.12c0-.46.05-.9.08-1.32.09-1.59.17-3,.33-4.09a49.6,49.6,0,0,0,7-7.81,34.2,34.2,0,0,0,5.37-11c.08-.27.15-.55.21-.83.06.75.07,1.49.06,2.24a29.92,29.92,0,0,1-6.07,16.94,46.44,46.44,0,0,1-3.52,4.31Zm-70.28-29c3.57,11.77-3.7,19.33-9.51,25.14a6.27,6.27,0,0,0-2.11,3.79c0,.22-.06.46-.07.71a68.43,68.43,0,0,0,14.91,2.15c.63,0,1.27,0,1.9,0s1.51,0,2.25,0a67.89,67.89,0,0,0,14.93-2c0-.12,0-.24,0-.33a2.52,2.52,0,0,0-.06-.48c-.06-.3-.12-.59-.19-.86a7.45,7.45,0,0,0-1.38-2.37,5.81,5.81,0,0,0-.54-.58c-5.83-5.83-13.11-13.41-9.49-25.23a31,31,0,0,1,2.56-5.9c3.19-5.72,8.79-12.31,17.8-20a10.29,10.29,0,0,1,4.52-1.24h.82l.4,0c4.24.24,10.17,3,15.49,14.05,3.87,8,8.88,21.24,13.21,36l-.07.06-.15.14-.08.07-.22.2h0l-.54.48h0c-.19.17-.37.33-.56.48-.37.32-.75.64-1.15,1l-1.19.95c-.8.62-1.62,1.23-2.47,1.83h0c-.29.2-.58.41-.88.6-1,.69-2,1.36-3.08,2l-2.36,1.4-.58.33q-2.06,1.15-4.2,2.22l-1.55.76c-1,.48-2,.93-3,1.37s-2.08.89-3.15,1.31c-2.3.9-4.66,1.74-7.06,2.49-.67.21-1.36.42-2.05.61q-2.8.82-5.66,1.47c-.34.08-.67.16-1,.22-.77.18-1.56.33-2.35.49l-1.08.2c-1.32.24-2.65.44-4,.62l-.1,0c-2,.26-3.9.44-5.74.56-1,.06-1.9.11-2.87.13h0c.24-.14.52-.29.8-.48h0c.79-.47,1.7-1,2.64-1.68.34-.21.66-.43,1-.65,3-2.08,6.33-4.81,8.17-7.77.11-.17.21-.35.31-.53a4.92,4.92,0,0,0,.26-.51c.17-.37.31-.72.45-1.08l.09-.3-.28.06a71.44,71.44,0,0,1-14.4,1.85c-.69,0-1.39,0-2.08,0h-.13c-.62,0-1.24,0-1.85,0a72.18,72.18,0,0,1-14.63-2s0,0,0,.06c1.55,4.55,8,9.12,13.88,12.54l0,0,.85.49h-.28c-2.34-.09-4.71-.27-7.1-.56l-1.47-.19h-.1c-1.71-.23-3.41-.5-5.11-.82-1.15-.22-2.29-.46-3.44-.72s-2.4-.56-3.6-.87c-1.56-.42-3.12-.88-4.66-1.37a1.53,1.53,0,0,1-.26-.08c-1.09-.35-2.17-.72-3.24-1.1s-2.14-.79-3.2-1.21a92.62,92.62,0,0,1-12.57-6.12c-1.2-.7-2.37-1.43-3.5-2.19a66.72,66.72,0,0,1-8.93-6.91l-.57-.51h0a255.83,255.83,0,0,1,13-35.29,40,40,0,0,1,4.25-7.07c.17-.23.35-.46.54-.67.35-.44.71-.85,1.07-1.23.17-.19.35-.38.53-.55a6.26,6.26,0,0,1,.53-.51c.36-.33.71-.64,1.06-.92.18-.15.35-.29.52-.41a16.5,16.5,0,0,1,2-1.3c.3-.16.61-.3.9-.43s.71-.28,1.06-.4a9.52,9.52,0,0,1,.93-.27l.91-.18.61-.08.26,0,.4,0h.82a10.27,10.27,0,0,1,4.78,1.24c9,7.67,14.61,14.26,17.8,20A30.22,30.22,0,0,1,1364.35,517.58Zm-28.29-48.31c-1.1,1-2.18,2-3.23,3.06-2.47,2.4-4.78,4.79-6.92,7.13-.43.45-.85.9-1.25,1.36l-.16.18a62.9,62.9,0,0,1,9.41-3.31,61.75,61.75,0,0,1,11.65-1.92,2.83,2.83,0,0,1,.41,0h-.06a69.64,69.64,0,0,0-15.79,4.75,68.21,68.21,0,0,0-10.4,5.61,120.47,120.47,0,0,0-10,8.95c-2.21,2.21-4.21,4.37-6,6.47l-1.16,1.37a.17.17,0,0,1-.15,0,.09.09,0,0,1,0-.06c-.27-1.27,11.59-15.5,19.86-23.93.46-.46.93-.94,1.42-1.42a148.7,148.7,0,0,1,30.51-23l.06,0,1.35-.77A180,180,0,0,0,1336.06,469.27Zm-34.66,65.44a50.33,50.33,0,0,0,6.58,7.35c.2,1.18.28,2.65.39,4.47,0,.45.05.93.09,1.43l-.28-.28a45.11,45.11,0,0,1-4.85-5.66,29.67,29.67,0,0,1-5.75-13.28c0-.26-.08-.53-.11-.8A37.38,37.38,0,0,0,1301.4,534.71Zm4.71,62.92c-1-.71-1.88-1.41-2.74-2.13l0,0c-22.23-18.29-11.82-37.53-9.33-41.44.25-.39.42-.63.47-.7C1286.28,580.24,1301.94,594.43,1306.11,597.63Zm107.39,27.63-.14,0c-1.19-.31-2.46-.61-3.78-.87a34.73,34.73,0,0,0-5.55-.59c-.49,0-1,0-1.54,0l-.71,0a26.53,26.53,0,0,0-11.84,3.26h0a26.74,26.74,0,0,0-3.85,2.52l-.61.53a14.58,14.58,0,0,0-3.77,5.08,72.21,72.21,0,0,1-12,1.15h-.26c-.64,0-1.27,0-1.89,0a70.92,70.92,0,0,1-10.4-1c-2-4.71-6.16-7.07-8.3-8.25a26.46,26.46,0,0,0-12.1-3.26l-.71,0c-.53,0-1,0-1.54,0a35.19,35.19,0,0,0-5.27.59c-1.29.25-2.53.54-3.71.85l-.13,0c-6-1.5-12.08-4-16.68-8.3l-.08-.08a23.53,23.53,0,0,1-6.21-9.41l0-.1a26.19,26.19,0,0,1-.9-3.33c-.19-1-.36-1.92-.49-2.94l0-.26a38.8,38.8,0,0,0,5.91,4.47l.11.07a21.82,21.82,0,0,0,5.86,2.48,25.74,25.74,0,0,0,6,1h.24a8.15,8.15,0,0,0,5.93-2c2.6-2.59,2.12-6.88,1.75-9.68,0-.29-.07-.55-.12-.83,0,0,0-.07,0-.11-1.06-6.55-4.21-9.63-7.75-16.24a81,81,0,0,1-8.35-25.09v0c0-.18,0-.31-.06-.42s0-.13,0-.19a.77.77,0,0,1,0-.15c-.08-.64-.16-1.25-.22-1.83,0,0,.1.07.16.09,0,.55.07,1.14.12,1.76A116.41,116.41,0,0,0,1344,567.7l1.77.41h0l.2,0,1.6.34.22,0c1.08.22,2.17.42,3.26.61l.26,0a115.56,115.56,0,0,0,15.9,1.58c.85,0,1.7,0,2.55.05H1372c3.48,0,7-.22,10.39-.58l.27,0c0,.07-.05.13-.07.2l0,.13c-1.27,3.89,1.32,8.75,2.42,10.81,0,.09.09.18.14.27l.05.1a23.3,23.3,0,0,0,4.24,5.35l.27.25a38.28,38.28,0,0,0,4.29,3.5l1.14.61.21.12,10.34,5.56h0l.11.06a56.26,56.26,0,0,0,7,2.29l1.32.33a16.13,16.13,0,0,0,3.38.43h.6a14.91,14.91,0,0,0,2.21-.22,75.72,75.72,0,0,0,17.48-5.23l.24-.11a22.89,22.89,0,0,1-.17,9.3C1434.18,619.49,1414.81,624.91,1413.5,625.26Zm-23.21-45.91a5.54,5.54,0,0,1-.07.57l.23.27c0-.32.08-.64.11-1Zm-3.64-32c0-.12,0-.24,0-.33a2.52,2.52,0,0,0-.06-.48c-.06-.3-.12-.59-.19-.86a7.45,7.45,0,0,0-1.38-2.37,5.81,5.81,0,0,0-.54-.58c-5.83-5.83-13.11-13.41-9.49-25.23h-.26c-3.62,11.82,3.66,19.39,9.49,25.22a5.81,5.81,0,0,1,.54.58,7.45,7.45,0,0,1,1.38,2.37c.07.27.13.56.19.86a2.52,2.52,0,0,1,.06.48c0,.09,0,.21,0,.33a68.07,68.07,0,0,1-14.67,2A67.89,67.89,0,0,0,1386.65,547.34Zm3.64,32a5.54,5.54,0,0,1-.07.57l.23.27c0-.32.08-.64.11-1Zm-3.64-32c0-.12,0-.24,0-.33a2.52,2.52,0,0,0-.06-.48c-.06-.3-.12-.59-.19-.86a7.45,7.45,0,0,0-1.38-2.37,5.81,5.81,0,0,0-.54-.58c-5.83-5.83-13.11-13.41-9.49-25.23h-.26c-3.62,11.82,3.66,19.39,9.49,25.22a5.81,5.81,0,0,1,.54.58,7.45,7.45,0,0,1,1.38,2.37c.07.27.13.56.19.86a2.52,2.52,0,0,1,.06.48c0,.09,0,.21,0,.33a68.07,68.07,0,0,1-14.67,2A67.89,67.89,0,0,0,1386.65,547.34Zm0-.33a2.52,2.52,0,0,0-.06-.48c-.06-.3-.12-.59-.19-.86a7.45,7.45,0,0,0-1.38-2.37,5.81,5.81,0,0,0-.54-.58c-5.83-5.83-13.11-13.41-9.49-25.23h-.26l-5.19,0-5.18,0c3.57,11.77-3.7,19.33-9.51,25.14a6.27,6.27,0,0,0-2.11,3.79c0,.22-.06.46-.07.71a68.43,68.43,0,0,0,14.91,2.15c.63,0,1.27,0,1.9,0s1.51,0,2.25,0a67.89,67.89,0,0,0,14.93-2C1386.65,547.22,1386.65,547.1,1386.64,547Zm3.65,32.34a5.54,5.54,0,0,1-.07.57l.23.27c0-.32.08-.64.11-1Z" transform="translate(-1183 -389.47)"/><path class="cls-3" d="M1372,563.45l0,0" transform="translate(-1183 -389.47)"/><path class="cls-1" d="M1348.65,562.7l.56.15.26.06.15,0C1349.29,562.86,1349,562.79,1348.65,562.7Zm-2.55-.63c.34.09.67.19,1,.27a1.36,1.36,0,0,0,.29.06C1347,562.3,1346.53,562.19,1346.1,562.07Zm-3-.85.27.1.39.1.61.17Zm-2.19-.67h0c.31.11.64.21.95.29C1341.54,560.75,1341.21,560.66,1340.9,560.55Zm-3.12-1,.35.13.82.28Zm-27.36-7.26c-.06,0-.11-.07-.16-.09.06.58.13,1.19.22,1.83l.06,0C1310.49,553.38,1310.45,552.79,1310.42,552.24Z" transform="translate(-1183 -389.47)"/><path class="cls-1" d="M1431,550.15c0,.12.07.23.09.35-.08.58-.14,1.22-.2,1.91l.11-.07c.1-.85.18-1.64.22-2.4Zm-1.72-9.26c-.36.33-.75.65-1.12,1,.37-.31.76-.65,1.12-1l.45-.42Zm-6,4.71c-.28.21-.58.41-.88.61l.88-.6h0ZM1415,554l.39-.19c.08-.05.18-.09.26-.15Zm-7.82,3.64.11,0,.12-.06Zm-15,11.16h.08l.13,0Z" transform="translate(-1183 -389.47)"/><path class="cls-1" d="M1351.33,569.23a.08.08,0,0,0,0,0c0-.32-.1-.64-.16-1a11,11,0,0,0-3.36-.66h0a2.66,2.66,0,0,0-1.78.6.12.12,0,0,0,0,.05h0c-1.12,1.15,0,3.11.36,6,.77,6-2.41,9.81-3,14.24a.27.27,0,0,0,0,.13,9.61,9.61,0,0,0,.27,3.87,9.42,9.42,0,0,0,.82,2.1,1.85,1.85,0,0,0,.21.33,1.38,1.38,0,0,0,.87.66h.07a1.4,1.4,0,0,0,1-.47,3.5,3.5,0,0,0,.27-.28l.18-.21a4.39,4.39,0,0,0,.91-3.13c.17-1.12.46-2.86.92-5,0-.18.08-.35.11-.53h0a.51.51,0,0,0,0-.13h0c1.23-5.43,2.31-7.43,2.6-11.25A24.34,24.34,0,0,0,1351.33,569.23Zm-7.07,23h0a10.12,10.12,0,0,1,.07-4.16l0-.13a27.32,27.32,0,0,1,.74-3v-.05c.19-.61.32-1,.32-1-.07,1.14-.2,2.45-.34,3.71,0,0,0,.08,0,.12-.29,2.65-.64,5-.64,5A3.25,3.25,0,0,1,1344.26,592.28Z" transform="translate(-1183 -389.47)"/><path class="cls-1" d="M1390.06,572.34a16.9,16.9,0,0,0-1.93-4.38c-.1-.16-.19-.31-.28-.44l.49-.11,1.89-.41,2.74-.61a19.84,19.84,0,0,1,1,2.09s0,0,0,0a16.19,16.19,0,0,1,.94,3.31,17.3,17.3,0,0,1,0,5.42,49.06,49.06,0,0,0-.89,6.94,44.81,44.81,0,0,1-3.57-4c0-.32.08-.64.1-1A17.58,17.58,0,0,0,1390.06,572.34Z" transform="translate(-1183 -389.47)"/><path class="cls-1" d="M1395.46,591c0,.19-.1.37-.16.54a.56.56,0,0,1,0,.12,6.85,6.85,0,0,1-.64,1.57h0c-.06.11-.13.22-.19.31a1.57,1.57,0,0,1-1.07.79h-.23a1.45,1.45,0,0,1-.62-.26h0a2.69,2.69,0,0,1-.28-.22,8.09,8.09,0,0,1-1.45-2.12,10.2,10.2,0,0,1-1.1-4.16c0-.09,0-.17,0-.26a24.62,24.62,0,0,1,.42-4.71c0-.1,0-.21.05-.31a23.54,23.54,0,0,0,1.6,2.16,24.27,24.27,0,0,0,2.56,2.69c0,.09,0,.18,0,.28s.05.26.08.4A17.19,17.19,0,0,0,1395.46,591Z" transform="translate(-1183 -389.47)"/><path class="cls-1" d="M1344.64,594.16l-.51,4s1.33,1.48,2.4.41l.3-4.42Z" transform="translate(-1183 -389.47)"/><path class="cls-1" d="M1395.3,596.83a1.21,1.21,0,0,1-1.2.63h0a2.8,2.8,0,0,1-1.2-.42l-.36-2.8,0-.16-.13-1,1.85-.53.25-.07.07.4.07.36h0Z" transform="translate(-1183 -389.47)"/><path class="cls-1" d="M1336.34,511.59l-12,16.53-.12-.19a28.41,28.41,0,0,1-2.63-5.36,26,26,0,0,1-1.62-11Z" transform="translate(-1183 -389.47)"/><path class="cls-1" d="M1343,511.59l-15,20.67a1.07,1.07,0,0,1-.16-.14,15.23,15.23,0,0,1-1.41-1.36l13.87-19.17Z" transform="translate(-1183 -389.47)"/><path class="cls-1" d="M1403.75,511.59l-16.33,22.58-.18-.09a18.6,18.6,0,0,1-5-3.57,20.93,20.93,0,0,1-5.65-13h-1.89l-10.37.08h-1.57a22.33,22.33,0,0,1-5.85,12.2,23.4,23.4,0,0,1-16.67,6.77c-.29,0-.59,0-.88,0a20.36,20.36,0,0,1-6.82-1.48l17-23.47Z" transform="translate(-1183 -389.47)"/><path class="cls-1" d="M1413.77,511.59l-17.85,24.65h-.25a21.94,21.94,0,0,1-2.92-.34l17.59-24.3Z" transform="translate(-1183 -389.47)"/><path class="cls-1" d="M1418.27,519.73c-.8,2.72-3.33,9.57-10,13.53a22.61,22.61,0,0,1-10.8,3h0l17.84-24.65h3.88A24.18,24.18,0,0,1,1418.27,519.73Z" transform="translate(-1183 -389.47)"/><path class="cls-1" d="M1509.84,524.33l-.08,0h0l-.34.16-2,.93-.14.06-1.88.87h0l-.1.05h0l-.23.11-.14.06-46.12,21.22-.26.12-8.41,3.87-.22.1-22.16,10.2-.3.14-15.23,7-.09,0-17.17,7.9-.28.13-4.07,1.88-.27.12-.37.16a.47.47,0,0,1-.06-.09h0l-.43-.57a.18.18,0,0,1-.05-.07c-.47-.62-.91-1.23-1.31-1.82-.55-.82-1-1.59-1.48-2.31.08.28.17.56.27.85a22.82,22.82,0,0,0,.91,2.41c.09.23.2.47.31.7.22.47.45.95.71,1.43l-.21.1-3.42,1.57-.2.09-76.21,35.07-.17.08-10.14,4.66-.2.09-12.6,5.8-.3.14h0l0,0,0-.1-4.65-10.12.64-.29.13-.07,12.05-5.53h0l.23-.1,8.59-4,.22-.1,4.42-2h0l.14-.07,19.44-9,.24-.11,16.28-7.49h0l.26-.12.81-.38.27-.12.49-.22.26-.13,3.55-1.63.27-.13h0l33.33-15.33.3-.14,5.38-2.47.21-.1,2.1-1,.24-.11,3.89-1.79h0l33.69-15.51.27-.12,2.74-1.27.27-.12,2.83-1.3.46-.21,18.69-8.6.3-.14,49.51-22.78h0l.3-.14,1.67-.76h0l.3-.14.09,0c0,.07-.11.14-.16.22l0,.05h0a.05.05,0,0,0,0,0,3,3,0,0,0-.26.42,3.73,3.73,0,0,0-.26.53,6.93,6.93,0,0,0,4.24,8.86c.27.09.53.17.77.23Z" transform="translate(-1183 -389.47)"/><path class="cls-1" d="M1510.21,524.16l-.13-.06-.15-.06-.37-.17a7.83,7.83,0,0,1-4.62-6,6.87,6.87,0,0,1,.66-3.74l4.4,9.54,0,.12.06.13Z" transform="translate(-1183 -389.47)"/><path class="cls-1" d="M1509.93,524l-.37-.17.44-.17.15-.06-.1.18Z" transform="translate(-1183 -389.47)"/><path class="cls-1" d="M1518.39,584.83a30.48,30.48,0,0,0-4.62-13.78c-1.28-2.2-2.68-4.33-4-6.55a50.7,50.7,0,0,1-3-5.52,32.43,32.43,0,0,1-2.61-8.94c-.1-.72-.18-1.47-.23-2.27-.4-5.45.43-12.71,4.94-21.75.27-.55.56-1.1.85-1.65l0,0c-.24-.06-.5-.14-.77-.23l-2.33.92L1459,543.83c-.13,1.39-.22,2.72-.28,4-.53,12.61,2.58,20.87,5.61,26.16,5.1,8.88,11,11.18,15.57,20.6a39,39,0,0,1,3,8.84,45.56,45.56,0,0,1,.9,11.88c-.07,1.61-.22,3.11-.39,4.46l2.9-1.25,8.64-3.73,16.39-7.07C1515,602.31,1519.05,594.26,1518.39,584.83Zm-6.16,20.5a42,42,0,0,0,.66-18.66,27.52,27.52,0,0,0-2.36-7c-.78-1.69-1.75-3.61-3-6.41-.18-.4-.35-.81-.53-1.21-.86-2-1.73-4-2.55-6a91.7,91.7,0,0,1-3.26-9.26c-1.82-6.41-2.59-13-1-19.55a31.75,31.75,0,0,1,5.44-11.36,40.93,40.93,0,0,0-5.14,15.18,35.1,35.1,0,0,0,1.28,13.83h0c.71,2.57,1.61,5.09,2.54,7.67.23.64.46,1.25.68,1.83a58.29,58.29,0,0,0,2.64,5.9c1.44,2.84,2.74,4.78,3.83,6.85a25,25,0,0,1,2.46,6.64C1515.15,589,1515.4,596.18,1512.23,605.33Z" transform="translate(-1183 -389.47)"/><path class="cls-1" d="M1285.36,621.79c-1.44-3.8-4.84-6-7.61-5s-3.85,5-2.41,8.77,4.83,6,7.6,5S1286.79,625.59,1285.36,621.79Zm-7.89,6.09a6.9,6.9,0,0,1-1.66-7.25,5.46,5.46,0,0,1,1.24-1.83,7.17,7.17,0,0,0-1.07,4.5c.34,3,2.86,5.66,6.35,6.63A7.38,7.38,0,0,1,1277.47,627.88Z" transform="translate(-1183 -389.47)"/><path class="cls-1" d="M1513.66,517.1a9.33,9.33,0,0,0-1.52-2.66c-1.68-2.09-4.06-3.09-6.09-2.33a4.59,4.59,0,0,0-2.61,2.8,8.7,8.7,0,0,0,.19,6,9,9,0,0,0,3,4.13,6,6,0,0,0,.71.45,5.23,5.23,0,0,0,1.51.56,4.69,4.69,0,0,0,.73.09,4,4,0,0,0,1.61-.24C1514,524.83,1515.09,520.9,1513.66,517.1Zm-3.64,7.27-.18,0h-.06c-.24-.06-.5-.14-.77-.23a6.93,6.93,0,0,1-4.24-8.86,5.59,5.59,0,0,1,.74-1.27,4.79,4.79,0,0,1,.5-.56,8,8,0,0,0-.41.76,6.87,6.87,0,0,0-.66,3.74,7.83,7.83,0,0,0,4.62,6l.37.17.15.06.13.06a9.81,9.81,0,0,0,1.08.37A7.86,7.86,0,0,1,1510,524.37Z" transform="translate(-1183 -389.47)"/><path class="cls-1" d="M1386.74,566.39c.24.08.48.19.72.28l-1.9.27A7.94,7.94,0,0,1,1386.74,566.39Z" transform="translate(-1183 -389.47)"/><path class="cls-1" d="M1452.11,583a2.11,2.11,0,0,1-.21.31,1.87,1.87,0,0,0,.17-.35S1452.09,583,1452.11,583Z" transform="translate(-1183 -389.47)"/><path class="cls-4" d="M1522.66,444.29a377.12,377.12,0,0,1-151.11-35.36l-1.26-.59-1.26.59a377.48,377.48,0,0,1-150.5,35.34l-3,.07.1,3c2.68,86.62,32.17,167.8,81.88,230.69.19.26.4.53.62.79q1.32,1.68,2.68,3.34c.46.57.93,1.14,1.4,1.7l3.24-5.53c-.48-.56-.94-1.13-1.39-1.7q-1.35-1.67-2.67-3.36l-.63-.79c-47.47-60.9-75.84-139-79-222.32A383.23,383.23,0,0,0,1370.29,415a383,383,0,0,0,149.2,35.26,405.28,405.28,0,0,1-7.61,64.23c-.63,3.18-1.3,6.36-2,9.51a.4.4,0,0,1,0,.15l.13.06a9.81,9.81,0,0,0,1.08.37,7.86,7.86,0,0,1-1.27-.16c-.12.58-.26,1.16-.39,1.74q-2.53,10.95-5.67,21.66c-.69,2.38-1.41,4.74-2.15,7.1h0c.71,2.57,1.61,5.09,2.54,7.67.23.64.46,1.25.68,1.83q.92-2.68,1.77-5.4a407.88,407.88,0,0,0,19-111.59l.1-3ZM1323.55,698.87c-1-1-1.92-2-2.87-3-.22-.24-.45-.48-.66-.72l-3.18,5.41.67.71,2.88,3c.49.51,1,1,1.49,1.52l3.15-5.37C1324.53,699.9,1324,699.38,1323.55,698.87ZM1380.73,732l-1.33,1c-1.77,1.35-3.56,2.69-5.37,4-.89.66-1.78,1.31-2.68,1.94.74,0,1.49,0,2.26,0h7.84c.87-.64,1.73-1.3,2.59-2,1.72-1.31,3.43-2.65,5.12-4l1.27-1ZM1501,556.77a381.29,381.29,0,0,1-18.28,46.67,363.54,363.54,0,0,1-38.57,64.26c-.25.35-.51.69-.78,1-1,1.34-2,2.67-3.08,4-.5.66-1,1.31-1.54,2h7.62c.5-.65,1-1.3,1.49-2q1.53-2,3-4c.27-.35.52-.69.77-1a368.28,368.28,0,0,0,32-52.38A384,384,0,0,0,1504.21,566,91.7,91.7,0,0,1,1501,556.77Zm-89,148q-3,3-6.12,5.93c-.36.35-.72.7-1.09,1-1.44,1.35-2.89,2.69-4.35,4-.73.67-1.47,1.33-2.21,2h8.95c.71-.64,1.42-1.3,2.12-2,1.41-1.31,2.81-2.65,4.19-4l1-1q3-2.92,5.9-5.93Zm8.76-9c-.32.35-.65.69-1,1-1.27,1.35-2.54,2.68-3.83,4-.64.66-1.28,1.32-1.94,2h8.37c.64-.65,1.26-1.31,1.87-2,1.25-1.32,2.49-2.66,3.7-4,.32-.34.64-.69.94-1Zm-46.29,45.38a50.57,50.57,0,0,1-14.42-1.88c2.94,2.22,5.91,4.37,8.93,6.48l1.72,1.2,1.72-1.2c2.15-1.51,4.29-3,6.4-4.6Zm-7.94-4.54q-4.68-3.43-9.23-7c-.74-.57-1.47-1.15-2.2-1.75a22.12,22.12,0,0,1-4.3-3.24,10.52,10.52,0,0,1-.75-.9c-.15-.12-.29-.24-.44-.38q-3.65-3-7.2-6.23-2.54-2.25-5-4.57l0,0q-5.54-5.13-10.83-10.54l-3.15,5.36q8.28,8.38,17.15,16.15a31.53,31.53,0,0,1-1.33-3.22,38.92,38.92,0,0,1-1.71-7,37.13,37.13,0,0,0,1.42,5.3,29.85,29.85,0,0,0,2.89,6q6.75,5.87,13.81,11.35c.64.28,1.29.53,2,.77a43.51,43.51,0,0,0,12.25,2.33C1368.62,738.13,1367.52,737.33,1366.43,736.53Z" transform="translate(-1183 -389.47)"/><path class="cls-4" d="M1537,429.72a412.37,412.37,0,0,1-165.19-38.67l-1.13-.52-.13-.06-1.27.58a412.79,412.79,0,0,1-143.74,37.62l-4.81.33q-5.16.31-10.33.52l-1.15,0-2.79.08h-.26l-1,0h-.47l-3,.07.09,3c3,95.37,35.67,184.7,90.78,253.6.08.1.16.21.25.31l.38.48q1.32,1.67,2.7,3.31c.45.57.91,1.13,1.39,1.69l.11-.18,3.12-5.32c-.47-.57-.94-1.14-1.39-1.71q-1.37-1.65-2.68-3.33l-.38-.48c-.09-.1-.17-.21-.25-.31-52.16-66-83.63-150.86-87.78-241.6,0-.09,0-.19,0-.29,0-1.11-.1-2.23-.14-3.35l3.48-.13h.24l1.4,0,.6,0c1.51-.07,3-.14,4.52-.23l.59,0c1.65-.09,3.3-.2,4.94-.31l5.12-.38.28,0,5.07-.45,4.41-.44a419.63,419.63,0,0,0,132-36.44l.13.06a418.22,418.22,0,0,0,163.15,38.49,438.62,438.62,0,0,1-24.22,128.59l-.1.28c-.64,1.83-1.31,3.66-2,5.48h0l-.11.29c1.44,2.84,2.74,4.78,3.83,6.85,0-.09.07-.19.11-.28.74-1.93,1.45-3.85,2.16-5.8l.1-.27a444,444,0,0,0,26.3-138l.1-3ZM1318.69,707.14c-1-1-1.92-2-2.86-3-.14-.15-.28-.29-.4-.44a.5.5,0,0,1-.1-.11l-.16-.17-3.17,5.4.26.28.4.44c.95,1,1.91,2,2.87,3,.49.52,1,1,1.49,1.54l.1-.17,3.05-5.2C1319.67,708.18,1319.17,707.66,1318.69,707.14Zm67.18,33.93c-2.82,2.25-5.67,4.43-8.56,6.57l-1.39,1c-1.63,1.21-3.27,2.39-4.92,3.56l-.13.09c-1.7-1.2-3.38-2.42-5.06-3.65l-1.38-1a356.23,356.23,0,0,1-42.69-37.33l-.16-.17-3.15,5.36a361.54,361.54,0,0,0,36.08,32.14c.44.36.89.7,1.33,1q2.63,2,5.29,4c.89.67,1.78,1.32,2.68,2h14.11c.89-.65,1.78-1.3,2.67-2q2.67-2,5.3-4l1.34-1q4.14-3.23,8.19-6.57Zm11-9-1.22,1q-2.37,2-4.78,4l-2.4,2h9.41l2.33-2c1.55-1.32,3.08-2.66,4.6-4l1.15-1Zm28.49-27.32q-2.8,3-5.68,5.93c-.33.34-.67.69-1,1-1.31,1.35-2.65,2.68-4,4-.67.66-1.34,1.32-2,2h8.54c.66-.64,1.31-1.3,2-2,1.3-1.32,2.59-2.64,3.86-4,.32-.33.63-.65.93-1h0c1.89-2,3.74-4,5.57-6Zm82-131.48-.39-.89-.14-.32a411.92,411.92,0,0,1-20.68,46.5,1,1,0,0,1-.08.14h0a393.81,393.81,0,0,1-30.22,49c-.24.35-.49.7-.75,1q-1.46,2-3,4t-3,4c-.93,1.22-1.85,2.41-2.81,3.61h0c-.43.55-.86,1.1-1.3,1.64l-8.67,13.69h-2.76c-.29.35-.59.69-.9,1-1.18,1.34-2.38,2.68-3.59,4-.59.66-1.19,1.32-1.81,2h8.11c.6-.65,1.18-1.31,1.75-2q3.72-4.19,7.27-8.48,6.26-7.5,12.12-15.33l5.18-8.17h.78a402.2,402.2,0,0,0,32.24-53.8l.07-.14q8.54-17.12,15.55-35.15C1509.49,578,1508.52,576,1507.29,573.24Z" transform="translate(-1183 -389.47)"/><path d="M1303.73,667.7l-2.78,4.73,0,.07L1297.7,678l0,.07-1.6,2.72,0,.07-3.21,5.47,0,.07-28.62,48.79-.12.2-.13.22-37.59-66.85-.58-1h-42l.6,1,58.31,101.5a34.34,34.34,0,0,0,8,9.58,19.19,19.19,0,0,0,11.91,4.24c.26,0,.52,0,.79,0h.13l.94,0a19,19,0,0,0,11.89-4.54,41,41,0,0,0,7.88-9.14l33-56.31,0-.06,3.12-5.31,0-.06,1.68-2.86,0-.06,3.12-5.31,0-.06,18.56-31.61.61-1Zm-82.1,7,38.54,68.52.17.3.09.16,3.35,6,.13-.23,3.26-5.55.17-.29.09-.15,30.06-51.25,0-.06,3.19-5.44,0-.06,1.6-2.73,0-.06,3.2-5.47,0-.06,2.1-3.59h24.44l-1.2,2-10.79,18.39-3.18,5.41-1.67,2.86-3.17,5.4-34,57.89a33.7,33.7,0,0,1-6.5,7.54,11.24,11.24,0,0,1-4.26,2.3l-.09,0-.17,0a14.6,14.6,0,0,1-3.74.48h-.12c-.21,0-.42,0-.62,0a13.4,13.4,0,0,1-2.26-.23h-.09l-.17,0a11.22,11.22,0,0,1-5.11-2.37c-.55-.45-1.09-.93-1.61-1.45a28,28,0,0,1-4.72-6.19l-52.89-92.07Z" transform="translate(-1183 -389.47)"/><path class="cls-2" d="M1332.18,674.7l-1.2,2-10.79,18.39-3.18,5.41-1.67,2.86-3.17,5.4-34,57.89a33.7,33.7,0,0,1-6.5,7.54,11.24,11.24,0,0,1-4.26,2.3V743.86l.17-.29,30.15-51.4,3.23-5.5,1.64-2.79,3.24-5.53,2.14-3.65Z" transform="translate(-1183 -389.47)"/><path class="cls-2" d="M1260.17,743.22v33.51a11.29,11.29,0,0,1-4.85-2.32c-.55-.45-1.09-.93-1.61-1.45a28,28,0,0,1-4.72-6.19L1196.1,674.7h25.53Z" transform="translate(-1183 -389.47)"/><path d="M1376.28,695.69a20.14,20.14,0,0,0-6.38.88,11.18,11.18,0,0,0-2.75,1.35,8.08,8.08,0,0,0-2.68,3.12,12.09,12.09,0,0,0-1.17,5.55,14.45,14.45,0,0,0,.39,3.47,14.75,14.75,0,0,1-.12-1.94,12.11,12.11,0,0,1,1.57-6.4,8.35,8.35,0,0,1,2.49-2.68,11.4,11.4,0,0,1,3.2-1.51h0a21,21,0,0,1,6.2-.81h42.65c.32-.34.65-.68,1-1ZM1373.61,732a40.92,40.92,0,0,1-13.76-2,28.09,28.09,0,0,1-4.85-2.25c.73.6,1.46,1.18,2.2,1.75a27,27,0,0,0,3.58,1.56,40.55,40.55,0,0,0,13.59,2h5l1.33-1Zm2.67-36.35a20.14,20.14,0,0,0-6.38.88,11.18,11.18,0,0,0-2.75,1.35,8.08,8.08,0,0,0-2.68,3.12,12.09,12.09,0,0,0-1.17,5.55,14.45,14.45,0,0,0,.39,3.47,14.75,14.75,0,0,1-.12-1.94,12.11,12.11,0,0,1,1.57-6.4,8.35,8.35,0,0,1,2.49-2.68,11.4,11.4,0,0,1,3.2-1.51h0a21,21,0,0,1,6.2-.81h42.65c.32-.34.65-.68,1-1ZM1373.61,732a40.92,40.92,0,0,1-13.76-2,28.09,28.09,0,0,1-4.85-2.25c.73.6,1.46,1.18,2.2,1.75a27,27,0,0,0,3.58,1.56,40.55,40.55,0,0,0,13.59,2h5l1.33-1Zm2.67-36.35a20.14,20.14,0,0,0-6.38.88,11.18,11.18,0,0,0-2.75,1.35,8.08,8.08,0,0,0-2.68,3.12,12.09,12.09,0,0,0-1.17,5.55,14.45,14.45,0,0,0,.39,3.47,14.75,14.75,0,0,1-.12-1.94,12.11,12.11,0,0,1,1.57-6.4,8.35,8.35,0,0,1,2.49-2.68,11.4,11.4,0,0,1,3.2-1.51h0a21,21,0,0,1,6.2-.81h42.65c.32-.34.65-.68,1-1ZM1373.61,732a40.92,40.92,0,0,1-13.76-2,28.09,28.09,0,0,1-4.85-2.25c.73.6,1.46,1.18,2.2,1.75a27,27,0,0,0,3.58,1.56,40.55,40.55,0,0,0,13.59,2h5l1.33-1Zm2.67-36.35a20.14,20.14,0,0,0-6.38.88,11.18,11.18,0,0,0-2.75,1.35,8.08,8.08,0,0,0-2.68,3.12,12.09,12.09,0,0,0-1.17,5.55,14.45,14.45,0,0,0,.39,3.47,14.75,14.75,0,0,1-.12-1.94,12.11,12.11,0,0,1,1.57-6.4,8.35,8.35,0,0,1,2.49-2.68,11.4,11.4,0,0,1,3.2-1.51h0a21,21,0,0,1,6.2-.81h42.65c.32-.34.65-.68,1-1ZM1373.61,732a40.92,40.92,0,0,1-13.76-2,28.09,28.09,0,0,1-4.85-2.25c.73.6,1.46,1.18,2.2,1.75a27,27,0,0,0,3.58,1.56,40.55,40.55,0,0,0,13.59,2h5l1.33-1Zm2.67-36.35a20.14,20.14,0,0,0-6.38.88,11.18,11.18,0,0,0-2.75,1.35,8.08,8.08,0,0,0-2.68,3.12,12.09,12.09,0,0,0-1.17,5.55,14.45,14.45,0,0,0,.39,3.47,14.75,14.75,0,0,1-.12-1.94,12.11,12.11,0,0,1,1.57-6.4,8.35,8.35,0,0,1,2.49-2.68,11.4,11.4,0,0,1,3.2-1.51h0a21,21,0,0,1,6.2-.81h42.65c.32-.34.65-.68,1-1Zm0,0a20.14,20.14,0,0,0-6.38.88,11.18,11.18,0,0,0-2.75,1.35,8.08,8.08,0,0,0-2.68,3.12,12.09,12.09,0,0,0-1.17,5.55,14.45,14.45,0,0,0,.39,3.47,14.75,14.75,0,0,1-.12-1.94,12.11,12.11,0,0,1,1.57-6.4,8.35,8.35,0,0,1,2.49-2.68,11.4,11.4,0,0,1,3.2-1.51h0a21,21,0,0,1,6.2-.81h42.65c.32-.34.65-.68,1-1Zm0,0a20.14,20.14,0,0,0-6.38.88,11.18,11.18,0,0,0-2.75,1.35,8.08,8.08,0,0,0-2.68,3.12l.67.68a8.35,8.35,0,0,1,2.49-2.68,11.4,11.4,0,0,1,3.2-1.51h0a21,21,0,0,1,6.2-.81h42.65c.32-.34.65-.68,1-1Zm0,0a20.14,20.14,0,0,0-6.38.88,11.18,11.18,0,0,0-2.75,1.35,8.08,8.08,0,0,0-2.68,3.12l.67.68a8.35,8.35,0,0,1,2.49-2.68,11.4,11.4,0,0,1,3.2-1.51h0a21,21,0,0,1,6.2-.81h42.65c.32-.34.65-.68,1-1Zm75.79,23.12c-5.76-4.94-13.88-7.65-24.17-8.09-1-.05-2-.07-3.06-.07h-48.56a11.18,11.18,0,0,1-4.48-.69,3.49,3.49,0,0,1-.61-.34c-.73-.53-.89-1.94-.89-3,0-.88.11-2.42.82-2.91.54-.37,1.92-1,5.16-1h63.83l16.34-25.78,5.18-8.17.66-1h-83.88a59.22,59.22,0,0,0-18.51,2.6,34.9,34.9,0,0,0-13.18,7.53,30,30,0,0,0-7.7,11.9,44.66,44.66,0,0,0-2.4,14.93,43.89,43.89,0,0,0,.65,7.73c0,.25.08.5.13.75a37.13,37.13,0,0,0,1.42,5.3,29.85,29.85,0,0,0,2.89,6,27.41,27.41,0,0,0,4.11,5.06,31,31,0,0,0,9.7,6.29c.64.28,1.29.53,2,.77a43.51,43.51,0,0,0,12.25,2.33c.53.05,1.07.07,1.62.09.74,0,1.49,0,2.26,0h48.56c3.25,0,4.56.65,5,1a3.6,3.6,0,0,1,.91,2.64,5.24,5.24,0,0,1,0,.55c0,1.15-.17,2.66-1,3.32-.49.4-1.79,1.06-5,1.06h-69.42l-22.24,34.67H1420a59.53,59.53,0,0,0,18.51-2.59,34.6,34.6,0,0,0,13.27-7.72,29.91,29.91,0,0,0,7.7-12.54,51.65,51.65,0,0,0,2.31-15.88c0-9.42-2.46-16.93-7.33-22.38A23.85,23.85,0,0,0,1452.07,718.81Zm-95.49,35.83h65.59c4.16,0,7.24-.86,9.42-2.63a10.13,10.13,0,0,0,3.51-7.42c0-.43.05-.87.05-1.33a11.44,11.44,0,0,0-2.09-7.17l0-.05a8.41,8.41,0,0,0-1.49-1.49c-2.17-1.69-5.23-2.51-9.36-2.51h-48.56a40.92,40.92,0,0,1-13.76-2,28.09,28.09,0,0,1-4.85-2.25,22.12,22.12,0,0,1-4.3-3.24,15.83,15.83,0,0,1-1.19-1.28,21.41,21.41,0,0,1-4.09-7.09,34.89,34.89,0,0,1-1.8-11.47,37.43,37.43,0,0,1,2-12.58,23.21,23.21,0,0,1,3.6-6.61,21.44,21.44,0,0,1,2.31-2.55,23.29,23.29,0,0,1,2.8-2.24,31.33,31.33,0,0,1,7.77-3.74,52.49,52.49,0,0,1,16.31-2.24h71.15l-1.29,2-3.34,5.26-8.67,13.69h-60a20.14,20.14,0,0,0-6.38.88,11.18,11.18,0,0,0-2.75,1.35,8.08,8.08,0,0,0-2.68,3.12,12.09,12.09,0,0,0-1.17,5.55,14.45,14.45,0,0,0,.39,3.47,8.8,8.8,0,0,0,3.4,5.23c2.18,1.59,5.19,2.36,9.19,2.36h48.56c8.31,0,15,1.5,19.86,4.46a20.65,20.65,0,0,1,2.81,2,18.31,18.31,0,0,1,2.48,2.58,22.62,22.62,0,0,1,4.45,11.12,39.92,39.92,0,0,1,.39,5.76,44.47,44.47,0,0,1-2,13.72A23,23,0,0,1,1447,767a27.59,27.59,0,0,1-10.61,6.11,52.49,52.49,0,0,1-16.31,2.24h-76.72Zm13.32-58.07a11.18,11.18,0,0,0-2.75,1.35,8.08,8.08,0,0,0-2.68,3.12l.67.68a8.35,8.35,0,0,1,2.49-2.68,11.4,11.4,0,0,1,3.2-1.51Zm6.38-.88a20.14,20.14,0,0,0-6.38.88,11.18,11.18,0,0,0-2.75,1.35,8.08,8.08,0,0,0-2.68,3.12l.67.68a8.35,8.35,0,0,1,2.49-2.68,11.4,11.4,0,0,1,3.2-1.51h0a21,21,0,0,1,6.2-.81h42.65c.32-.34.65-.68,1-1Zm0,0a20.14,20.14,0,0,0-6.38.88,11.18,11.18,0,0,0-2.75,1.35,8.08,8.08,0,0,0-2.68,3.12,12.09,12.09,0,0,0-1.17,5.55,14.45,14.45,0,0,0,.39,3.47,14.75,14.75,0,0,1-.12-1.94,12.11,12.11,0,0,1,1.57-6.4,8.35,8.35,0,0,1,2.49-2.68,11.4,11.4,0,0,1,3.2-1.51h0a21,21,0,0,1,6.2-.81h42.65c.32-.34.65-.68,1-1Zm0,0a20.14,20.14,0,0,0-6.38.88,11.18,11.18,0,0,0-2.75,1.35,8.08,8.08,0,0,0-2.68,3.12,12.09,12.09,0,0,0-1.17,5.55,14.45,14.45,0,0,0,.39,3.47,14.75,14.75,0,0,1-.12-1.94,12.11,12.11,0,0,1,1.57-6.4,8.35,8.35,0,0,1,2.49-2.68,11.4,11.4,0,0,1,3.2-1.51h0a21,21,0,0,1,6.2-.81h42.65c.32-.34.65-.68,1-1Zm0,0a20.14,20.14,0,0,0-6.38.88,11.18,11.18,0,0,0-2.75,1.35,8.08,8.08,0,0,0-2.68,3.12,12.09,12.09,0,0,0-1.17,5.55,14.45,14.45,0,0,0,.39,3.47,14.75,14.75,0,0,1-.12-1.94,12.11,12.11,0,0,1,1.57-6.4,8.35,8.35,0,0,1,2.49-2.68,11.4,11.4,0,0,1,3.2-1.51h0a21,21,0,0,1,6.2-.81h42.65c.32-.34.65-.68,1-1ZM1373.61,732a40.92,40.92,0,0,1-13.76-2,28.09,28.09,0,0,1-4.85-2.25c.73.6,1.46,1.18,2.2,1.75a27,27,0,0,0,3.58,1.56,40.55,40.55,0,0,0,13.59,2h5l1.33-1Zm2.67-36.35a20.14,20.14,0,0,0-6.38.88,11.18,11.18,0,0,0-2.75,1.35,8.08,8.08,0,0,0-2.68,3.12,12.09,12.09,0,0,0-1.17,5.55,14.45,14.45,0,0,0,.39,3.47,14.75,14.75,0,0,1-.12-1.94,12.11,12.11,0,0,1,1.57-6.4,8.35,8.35,0,0,1,2.49-2.68,11.4,11.4,0,0,1,3.2-1.51h0a21,21,0,0,1,6.2-.81h42.65c.32-.34.65-.68,1-1ZM1373.61,732a40.92,40.92,0,0,1-13.76-2,28.09,28.09,0,0,1-4.85-2.25c.73.6,1.46,1.18,2.2,1.75a27,27,0,0,0,3.58,1.56,40.55,40.55,0,0,0,13.59,2h5l1.33-1Zm2.67-36.35a20.14,20.14,0,0,0-6.38.88,11.18,11.18,0,0,0-2.75,1.35,8.08,8.08,0,0,0-2.68,3.12,12.09,12.09,0,0,0-1.17,5.55,14.45,14.45,0,0,0,.39,3.47,14.75,14.75,0,0,1-.12-1.94,12.11,12.11,0,0,1,1.57-6.4,8.35,8.35,0,0,1,2.49-2.68,11.4,11.4,0,0,1,3.2-1.51h0a21,21,0,0,1,6.2-.81h42.65c.32-.34.65-.68,1-1ZM1373.61,732a40.92,40.92,0,0,1-13.76-2,28.09,28.09,0,0,1-4.85-2.25c.73.6,1.46,1.18,2.2,1.75a27,27,0,0,0,3.58,1.56,40.55,40.55,0,0,0,13.59,2h5l1.33-1Zm2.67-36.35a20.14,20.14,0,0,0-6.38.88,11.18,11.18,0,0,0-2.75,1.35,8.08,8.08,0,0,0-2.68,3.12,12.09,12.09,0,0,0-1.17,5.55,14.45,14.45,0,0,0,.39,3.47,14.75,14.75,0,0,1-.12-1.94,12.11,12.11,0,0,1,1.57-6.4,8.35,8.35,0,0,1,2.49-2.68,11.4,11.4,0,0,1,3.2-1.51h0a21,21,0,0,1,6.2-.81h42.65c.32-.34.65-.68,1-1Z" transform="translate(-1183 -389.47)"/><path d="M1501.47,747.64V667.7h-34.62V782.31h84.26l21.73-33.64.67-1Zm57.87,9-12,18.64h-73.45V674.7h20.62v79.94h66.18Z" transform="translate(-1183 -389.47)"/><path class="cls-4" d="M1389.66,587.31l-.27-.25a23.3,23.3,0,0,1-4.24-5.35l-.2.09a23.55,23.55,0,0,0,4.45,5.51l.27.26C1389.67,587.48,1389.66,587.4,1389.66,587.31Zm-37-40.09c0-.25,0-.49.07-.71a6.27,6.27,0,0,1,2.11-3.79c5.81-5.81,13.08-13.37,9.51-25.14h-.26c3.57,11.77-3.7,19.33-9.51,25.14a6.27,6.27,0,0,0-2.11,3.79c0,.22-.06.46-.07.71a68.36,68.36,0,0,0,15.17,2.15A68.43,68.43,0,0,1,1352.66,547.22Zm37.26,32.29a.47.47,0,0,1-.06-.09h0l-.19.09a8.32,8.32,0,0,0,.53.68l0-.27Zm-37.26-32.29c0-.25,0-.49.07-.71a6.27,6.27,0,0,1,2.11-3.79c5.81-5.81,13.08-13.37,9.51-25.14h-.26c3.57,11.77-3.7,19.33-9.51,25.14a6.27,6.27,0,0,0-2.11,3.79c0,.22-.06.46-.07.71a68.36,68.36,0,0,0,15.17,2.15A68.43,68.43,0,0,1,1352.66,547.22Zm37.26,32.29a.47.47,0,0,1-.06-.09h0l-.19.09a8.32,8.32,0,0,0,.53.68l0-.27Zm-37.26-32.29c0-.25,0-.49.07-.71a6.27,6.27,0,0,1,2.11-3.79c5.81-5.81,13.08-13.37,9.51-25.14h-.26c3.57,11.77-3.7,19.33-9.51,25.14a6.27,6.27,0,0,0-2.11,3.79c0,.22-.06.46-.07.71a68.36,68.36,0,0,0,15.17,2.15A68.43,68.43,0,0,1,1352.66,547.22Zm40.13,35.94c.31.33.63.65,1,1h0C1393.43,583.82,1393.1,583.49,1392.79,583.16Zm-2.93-3.74h0l-.19.09a8.32,8.32,0,0,0,.53.68l0-.27-.3-.41A.47.47,0,0,1,1389.86,579.42Zm65.11-58c-.67-6.24-2.69-11.43-6-17.43-18.27-33.71-52.22-50.71-54.73-51.94a132.41,132.41,0,0,0-15.13-6.22,22.43,22.43,0,0,0-7-1.2h-.09c-.27,0-.55,0-.82,0a22,22,0,0,0-5.94,1,126.32,126.32,0,0,0-16,6.22c-32.46,15.27-47.19,39.64-56,54.25-3.41,5.63-6.5,11.71-6.79,19.76a36,36,0,0,0,3.26,16,19.25,19.25,0,0,0,2.72,4.35c-6.67,9.55-6.73,24.2-6.28,31.68a15.41,15.41,0,0,0,1.63,6,61.92,61.92,0,0,0,4.77,7.84c-.56,4.81-.84,7.68-.84,7.68a40.09,40.09,0,0,0,1.61,12.1l0,.1h0a34.08,34.08,0,0,0,4.76,10.06l.06.09a29.22,29.22,0,0,0,11.33,9.59c.45.21,1,.43,1.47.64a27.25,27.25,0,0,0-7.6,8.8,13.66,13.66,0,0,0-1.22,10.11c1.51,5.61,5.44,7.08,12,7.34l1.34,0h2.86l2,0,2.09-.06h.07l3.38-.1,1.2,0c2.41-.06,5-.09,7.78,0h1.87c.65,0,1.27,0,1.86-.07h0c8.89-.57,11.91-3.68,14.19-6a18.9,18.9,0,0,0,3.43-4.91,16,16,0,0,0,1.34-4l.25.06a46.06,46.06,0,0,0,10.62,1.37h.88a46.26,46.26,0,0,0,11.26-1.57s0,0,0,.06a16.25,16.25,0,0,0,1.34,4,18.43,18.43,0,0,0,3.43,4.91c2.3,2.34,5.33,5.5,14.45,6h0c.6,0,1.22.06,1.87.07h1.61c2.87,0,5.55,0,8,0l1.2,0,3.41.1,2.13.06,2,0h2.86l1.34,0c6.38-.3,10.21-1.81,11.7-7.34a13.85,13.85,0,0,0-1.2-10.11,27.38,27.38,0,0,0-7.16-8.45c.81-.31,1.57-.64,2.31-1,19.1-9.24,17.78-31.95,17.78-31.95s-.3-3-.87-8.08c-.07-.27-.13-.55-.19-.83s-.17-.85-.23-1.26a24.27,24.27,0,0,0,5.12-5.82c0-.06.06-.12.09-.17a1.34,1.34,0,0,0,.07-.18,14.88,14.88,0,0,0,1.27-5.15c.36-6.1.4-17-3.22-25.92l0-.1a29.21,29.21,0,0,0-1.77-3.7,19.6,19.6,0,0,0,3.68-5.71c.55-1.35,1.11-2.83,1.59-4.45,0-.05,0-.09,0-.14A41.89,41.89,0,0,0,1455,521.39Zm-10.84,2.32c0,.47,0,.94,0,1.41a29.92,29.92,0,0,1-6.07,16.94,46.52,46.52,0,0,1-3.7,4.51l-.2.21c-.93,1-1.91,2-3,2.91l-.27.25h0c0-.61.09-1.18.13-1.74,0,0,0-.08,0-.12q0-.75.09-1.44c.09-1.59.17-3,.33-4.09a49.6,49.6,0,0,0,7-7.81,33.85,33.85,0,0,0,5.58-11.86C1444.1,523.16,1444.12,523.43,1444.13,523.71Zm-16.69,38.42a.74.74,0,0,1,0,.14,83.45,83.45,0,0,1-2.82,8.9s0,0,0,0a76.34,76.34,0,0,1-12.49-1.87l-.17,0c-.49-.11-1-.24-1.48-.37-3.23-.86-5.76-1.79-8.17-2.52a117.63,117.63,0,0,0,26.65-11.29.78.78,0,0,0,0,.16C1428.67,556.59,1428.23,559,1427.44,562.13Zm-116.25-17,.31.24a5.25,5.25,0,0,0,.53.43c.37.3.76.59,1.14.88s1.06.8,1.6,1.18l.25.18c.86.61,1.73,1.21,2.64,1.8.57.35,1.13.72,1.71,1.07.12.08.24.17.37.24l.4.22c.66.41,1.32.8,2,1.19a2.6,2.6,0,0,0,.24.13c.74.42,1.48.82,2.23,1.22s1.69.87,2.55,1.29l.28.14,1.57.74c.17.09.35.16.53.24l.62.29a.28.28,0,0,1,.09.05l.36.15.38.17,1.18.5.07,0,.17.07a5.35,5.35,0,0,1,.52.22l1,.38c.62.24,1.24.49,1.89.73.46.18.94.36,1.42.52l0,0c.1,0,.18.07.28.09h0l.14,0a.05.05,0,0,0,0,0l.16.06.13,0,.69.24h0l.1,0c.45.17.92.33,1.39.47l.45.14h0l.46.15.48.14c.25.09.5.17.76.24l.35.11.12,0h0l.06,0,.06,0,.27.08.23.07h0l.6.17h0c.54.16,1.07.3,1.61.44a.4.4,0,0,0,.13,0h0l.17,0,.16,0,.68.19.19,0h.1l.23.07a.59.59,0,0,1,.2,0h0c.13,0,.26.05.38.09l.41.08.9.22h.07l1.76.38c.34.09.66.16,1,.22-.79.3-1.56.62-2.31,1-.35.15-.7.31-1,.48l-.13.06c-.33.16-.66.34-1,.51l-.08,0a114.28,114.28,0,0,1-36.06-14.21,16.88,16.88,0,0,0-.32-2.2l0-.12c-.07-1-.12-1.86-.16-2.7,0-.52-.06-1-.1-1.49Zm53.08,22.66a111.72,111.72,0,0,1-11.74-1.25c.49-.2,1-.39,1.49-.56l0,0c.42-.16.85-.3,1.3-.43a2.06,2.06,0,0,1,.35-.12c.48-.16,1-.3,1.45-.43s.92-.25,1.39-.36l.17,0c2.62.35,5.22.57,7.79.68.86,0,1.72.07,2.57.08h2.47l1.92-.05,1.91-.1c1.82-.12,3.66-.3,5.64-.55l.08,0c.84.2,1.67.44,2.48.69.41.12.81.26,1.21.39.09,0,.19.06.27.1l1,.34a4.58,4.58,0,0,1,.46.2h0l.12.05s0,0,0,0l.58.23-1.54.22h0l-.35.05c-3.16.42-6.35.71-9.54.86-1.09.05-2.19.08-3.29.1-.89,0-1.78,0-2.67,0-.64,0-1.28,0-1.91,0s-1.29,0-1.93-.06Zm63.79-18.15c-.07.88-.15,1.81-.26,2.8a115.28,115.28,0,0,1-32.22,12.71h0c-.23,0-.46,0-.69,0h-.76a21.69,21.69,0,0,0-2.22.14l-.49.06-.21,0a38.49,38.49,0,0,0-3.8-1.71l.9-.19c.83-.17,1.67-.36,2.5-.55l1.24-.3.42-.1.83-.22,1.81-.49.11,0c.37-.09.73-.2,1.1-.31l.32-.09,1.12-.35c.67-.2,1.34-.42,2-.64l.85-.28.46-.17.1,0c1.25-.44,2.49-.9,3.71-1.38a5.66,5.66,0,0,0,.72-.28l.33-.13,1-.41h0l.22-.1h0l.06,0,.37-.15.71-.31c1.16-.49,2.3-1,3.42-1.54.33-.16.66-.31,1-.48.47-.21.92-.44,1.37-.68.23-.11.46-.23.67-.35h0l.33-.16.07,0,.12-.07.13-.08h0l.15-.09.73-.39,1.28-.71c.4-.21.79-.44,1.17-.67l.49-.28,1.2-.73c1-.63,2-1.27,3-1.93l.67-.46c.5-.34,1-.7,1.48-1.06.19-.14.38-.27.57-.42s.31-.22.47-.34l.67-.52c.2-.15.39-.31.59-.45l.43-.35v0a1.34,1.34,0,0,0,0,.2c0,.32,0,.65-.07,1-.06.93-.12,1.94-.19,3C1428.07,549.51,1428.06,549.55,1428.06,549.59Zm-13.61,46.34c-1.35.09-12.11-1.34-20.11-8.51l-.31-.28a24.27,24.27,0,0,1-2.56-2.69q-.37-.47-.72-.93t-.51-.69l-.16-.23-.21-.31c-.49-.73-.91-1.44-1.3-2.15l0-.1a28.37,28.37,0,0,1-2.2-5.39c.17.27.34.56.53.85.05.09.11.18.17.27l.38.59c.65,1,1.4,2,2.26,3.15a8.32,8.32,0,0,0,.53.68c.19.24.39.49.6.73s.34.41.53.62c.46.54,1,1.07,1.47,1.62.31.33.63.65,1,1h0a44.2,44.2,0,0,0,6.47,5.33,47.16,47.16,0,0,0,14.35,6.41A.22.22,0,0,1,1414.45,595.93Zm6-104.47c9.27,6,17.51,13.52,21.37,22.34a23.13,23.13,0,0,1,.15,3.12c0,.41,0,.8-.06,1.23a28,28,0,0,1-4.82,13.55l-.19.29c-3.23-13.34-7.23-25.76-12.07-34.05a43.32,43.32,0,0,0-5-6.88ZM1383.32,474c.55,0,1.12-.05,1.71-.06h1.87a49.53,49.53,0,0,1,17.4,3.47,46.51,46.51,0,0,1,7,3.53h0l.7.43a76.75,76.75,0,0,0-19.59-6c-1-.16-2.12-.32-3.22-.45-2.36-.29-4.62-.43-6.76-.49-1.26,0-2.48,0-3.64,0h-.28C1379.93,474.2,1381.54,474,1383.32,474Zm11.76,17.66a10.27,10.27,0,0,1,4.78-1.24h.82l.4,0,.35,0c.29,0,.59.08.9.14l.28.06.72.18a4.19,4.19,0,0,1,.47.14c.34.12.7.25,1.06.4s.6.27.9.43l.39.22.39.23.63.4.44.31c.15.1.3.22.44.33a20.24,20.24,0,0,1,2.71,2.54q.2.21.39.45c.23.25.44.52.65.79l.39.5c.18.23.35.46.52.7a42.3,42.3,0,0,1,3.6,6.19c3.87,8,8.88,21.24,13.21,36l-.06.06-.24.21-.22.2h0l-.54.48h0c-.18.17-.37.33-.55.48h0c-.37.32-.75.64-1.15,1l-1.19.95c-.8.62-1.62,1.23-2.47,1.83h0l-.87.6h0c-1,.69-2,1.36-3.08,2l-2.36,1.4-.58.33q-2.06,1.15-4.2,2.22l-1.55.76c-1,.48-2,.93-3,1.37s-2.08.89-3.15,1.31c-2.3.9-4.66,1.74-7.06,2.49-.67.21-1.36.42-2.05.61q-2.8.82-5.66,1.47c-.34.08-.67.16-1,.22-.77.18-1.56.33-2.35.49l-1.08.2c-1.32.24-2.65.44-4,.62l-.1,0c-2,.26-3.9.44-5.74.56-.86.05-1.72.1-2.59.12h-.28c.25-.14.53-.3.82-.49h0c.79-.47,1.7-1,2.64-1.68.34-.21.66-.43,1-.65,3-2.08,6.33-4.81,8.17-7.77.11-.17.21-.35.31-.53a4.92,4.92,0,0,0,.26-.51c.17-.37.31-.72.45-1.08,0-.09,0-.16.07-.24s0,0,0-.06a71.62,71.62,0,0,1-14.42,1.91c-.69,0-1.39,0-2.08,0h-.13c-.62,0-1.24,0-1.85,0a70.44,70.44,0,0,1-14.61-1.95l-.28-.06c1.51,4.57,8,9.16,13.9,12.6l0,0,.83.48h0c-2.43-.09-4.9-.27-7.38-.57l-1.47-.19h-.1c-1.71-.23-3.41-.5-5.11-.82-1.15-.22-2.29-.46-3.44-.72s-2.4-.56-3.6-.87c-1.56-.42-3.12-.88-4.66-1.37a1.53,1.53,0,0,1-.26-.08c-1.09-.35-2.17-.72-3.24-1.1s-2.14-.79-3.2-1.21a92.62,92.62,0,0,1-12.57-6.12c-1.2-.7-2.37-1.43-3.5-2.19a66.72,66.72,0,0,1-8.93-6.91l-.57-.51h0a255.83,255.83,0,0,1,13-35.29c5.31-11.07,11.24-13.81,15.48-14.05l.4,0h.82a10.29,10.29,0,0,1,4.52,1.24c9,7.67,14.61,14.26,17.8,20a30.22,30.22,0,0,1,2.58,6c3.57,11.77-3.7,19.33-9.51,25.14a6.27,6.27,0,0,0-2.11,3.79c0,.22-.06.46-.07.71a68.36,68.36,0,0,0,15.17,2.15c.63,0,1.27,0,1.9,0s1.51,0,2.25,0a68.07,68.07,0,0,0,14.67-2c0-.12,0-.24,0-.33a2.52,2.52,0,0,0-.06-.48c-.06-.3-.12-.59-.19-.86a7.45,7.45,0,0,0-1.38-2.37,5.81,5.81,0,0,0-.54-.58c-5.83-5.83-13.11-13.4-9.49-25.22h0a31,31,0,0,1,2.56-5.9C1380.47,505.87,1386.07,499.28,1395.08,491.61Zm-100.88,61.7-.21.7c-6.53,22.48,3.6,35.94,9.33,41.44l0,0a31.77,31.77,0,0,0,2.48,2.13C1277.5,576.88,1293.64,554.07,1294.2,553.31Zm29.15-75.85a149.25,149.25,0,0,1,31.92-23.86l-1.09.77-.06,0a179.33,179.33,0,0,0-18.32,14.86c-1.1,1-2.18,2-3.23,3.06-2.47,2.4-4.78,4.79-6.92,7.13-.49.51-1,1-1.41,1.54l.42-.18a62.46,62.46,0,0,1,21.11-5.09l-.12,0-.09,0a69.64,69.64,0,0,0-15.7,4.73,68.21,68.21,0,0,0-10.4,5.61,120.47,120.47,0,0,0-10,8.95c-2.21,2.21-4.21,4.37-6,6.47-.36.44-.72.85-1.08,1.28l-.08.09a.17.17,0,0,1-.15,0c-.79-.75,11.39-15.39,19.83-24C1322.39,478.42,1322.86,477.94,1323.35,477.46ZM1308.2,548a46,46,0,0,1-5.13-5.94,29.39,29.39,0,0,1-5.86-14.08c.12.27.24.53.37.8a37.72,37.72,0,0,0,3.56,6,50.33,50.33,0,0,0,6.58,7.35c.2,1.18.28,2.65.39,4.47,0,.37,0,.75.07,1.15C1308.19,547.77,1308.19,547.87,1308.2,548Zm-5.14-39.26s5.81-10.56,19-20c-.24.23-.47.46-.7.7a42.61,42.61,0,0,0-6.57,8.54c-4.77,8.22-8.76,20.51-12,33.73,0,.1,0,.19-.07.29a29.74,29.74,0,0,1-4.19-8.82,22.26,22.26,0,0,1-.66-3.39C1298.92,516.23,1300.78,512.84,1303.06,508.7Zm110.18,116.56c-1.23-.33-2.55-.64-3.92-.91a35.55,35.55,0,0,0-5.29-.59c-.49,0-1,0-1.54,0l-.71,0a26.49,26.49,0,0,0-12.1,3.26h0a26.74,26.74,0,0,0-3.85,2.52l-.61.53a14.58,14.58,0,0,0-3.77,5.08,72.21,72.21,0,0,1-12,1.15c-.64,0-1.27,0-1.89,0a68.87,68.87,0,0,1-10.66-1c-2-4.71-6.16-7.07-8.3-8.25a26.5,26.5,0,0,0-11.84-3.26l-.71,0c-.53,0-1,0-1.54,0a34.4,34.4,0,0,0-5.53.59c-1.24.24-2.44.52-3.58.82l-.13,0c-6-1.48-12.1-4-16.72-8.25l-.09-.08a23.43,23.43,0,0,1-6.25-9.39.42.42,0,0,1,0-.1,27.31,27.31,0,0,1-.93-3.43c-.21-1-.39-2.08-.52-3.2l.29.26a38.83,38.83,0,0,0,5.73,4.28l.11.07h0a21.51,21.51,0,0,0,5.74,2.41,25.37,25.37,0,0,0,6.28,1h.24a8,8,0,0,0,5.67-2c2.6-2.59,2.12-6.88,1.75-9.68,0-.25-.06-.48-.1-.72,0,0,0-.07,0-.11-1-6.63-4.21-9.7-7.77-16.35a81,81,0,0,1-8.35-25.09v0c0-.18,0-.31-.06-.42s0-.23,0-.34c-.09-.64-.16-1.25-.22-1.83h0l.12.07c0,.55.07,1.14.12,1.76l.22.13a116.43,116.43,0,0,0,33.24,13.57c.66.16,1.31.31,2,.45h0l.19.05h0l1.39.29.22,0c1.17.24,2.35.46,3.53.65a1.09,1.09,0,0,0,.26,0,115.23,115.23,0,0,0,15.89,1.54c.85,0,1.7,0,2.55.05H1372q5.22-.06,10.4-.61v0a1.49,1.49,0,0,0-.09.3c0,.05,0,.09,0,.14-1.17,3.86,1.37,8.63,2.46,10.67.06.12.13.24.19.37a.47.47,0,0,0,.06.09,23.55,23.55,0,0,0,4.45,5.51l.27.26a40.19,40.19,0,0,0,4,3.24l1.35.73h0l.21.12,10.12,5.44h0l.11.06a56.26,56.26,0,0,0,7,2.29l1.32.33a15.54,15.54,0,0,0,3.64.43h.6a16.16,16.16,0,0,0,2-.22,75.5,75.5,0,0,0,17.72-5.34s0,.08,0,.11a22.85,22.85,0,0,1-.19,9.19c-3.53,15.18-22.08,20.7-24.17,21.27Zm-23.32-45.75a.47.47,0,0,1-.06-.09h0l-.19.09a8.32,8.32,0,0,0,.53.68l0-.27Zm-37.26-32.29c0-.25,0-.49.07-.71a6.27,6.27,0,0,1,2.11-3.79c5.81-5.81,13.08-13.37,9.51-25.14h-.26c3.57,11.77-3.7,19.33-9.51,25.14a6.27,6.27,0,0,0-2.11,3.79c0,.22-.06.46-.07.71a68.36,68.36,0,0,0,15.17,2.15A68.43,68.43,0,0,1,1352.66,547.22Zm37.26,32.29a.47.47,0,0,1-.06-.09h0l-.19.09a8.32,8.32,0,0,0,.53.68l0-.27Zm-37.26-32.29c0-.25,0-.49.07-.71a6.27,6.27,0,0,1,2.11-3.79c5.81-5.81,13.08-13.37,9.51-25.14h-.26c3.57,11.77-3.7,19.33-9.51,25.14a6.27,6.27,0,0,0-2.11,3.79c0,.22-.06.46-.07.71a68.36,68.36,0,0,0,15.17,2.15A68.43,68.43,0,0,1,1352.66,547.22Zm33.72-.21a2.52,2.52,0,0,0-.06-.48c-.06-.3-.12-.59-.19-.86a7.45,7.45,0,0,0-1.38-2.37,5.81,5.81,0,0,0-.54-.58c-5.83-5.83-13.11-13.4-9.49-25.22l-5.19,0-5.18,0h-.26c3.57,11.77-3.7,19.33-9.51,25.14a6.27,6.27,0,0,0-2.11,3.79c0,.22-.06.46-.07.71a68.36,68.36,0,0,0,15.17,2.15c.63,0,1.27,0,1.9,0s1.51,0,2.25,0a68.07,68.07,0,0,0,14.67-2C1386.39,547.22,1386.39,547.1,1386.38,547Zm3.54,32.5a.47.47,0,0,1-.06-.09h0l-.19.09a8.32,8.32,0,0,0,.53.68l0-.27Zm-.26,7.8-.27-.25a23.3,23.3,0,0,1-4.24-5.35l-.2.09a23.55,23.55,0,0,0,4.45,5.51l.27.26C1389.67,587.48,1389.66,587.4,1389.66,587.31Z" transform="translate(-1183 -389.47)"/><path class="cls-5" d="M1306.76,605.29l-4.34,2a26.19,26.19,0,0,1-.9-3.33c-.19-1-.36-1.92-.49-2.94A38.83,38.83,0,0,0,1306.76,605.29Z" transform="translate(-1183 -389.47)"/><path class="cls-5" d="M1427.4,562.27a83.45,83.45,0,0,1-2.82,8.9,74.13,74.13,0,0,1-12.41-1.89Z" transform="translate(-1183 -389.47)"/><path class="cls-5" d="M1382.37,570.23a1.49,1.49,0,0,0-.09.3l-33.34,15.34c1.23-5.43,2.31-7.43,2.6-11.25a24.34,24.34,0,0,0-.21-5.39,115.23,115.23,0,0,0,15.89,1.54c.85,0,1.7,0,2.55.05H1372C1375.46,570.78,1378.93,570.59,1382.37,570.23Z" transform="translate(-1183 -389.47)"/><path class="cls-5" d="M1343,588.6l-16.32,7.51c-1.06-6.55-4.21-9.63-7.75-16.24a81,81,0,0,1-8.35-25.09v0c0-.18,0-.31-.06-.42s0-.13,0-.19a116.43,116.43,0,0,0,33.24,13.57c.66.16,1.31.31,2,.45l-.06.06c-1.13,1.15,0,3.11.36,6C1346.8,580.34,1343.55,584.11,1343,588.6Z" transform="translate(-1183 -389.47)"/><path class="cls-5" d="M1437.53,604c-3.53,15.18-22.08,20.7-24.17,21.27-1.19-.31-2.46-.61-3.78-.87a34.73,34.73,0,0,0-5.55-.59c-.49,0-1,0-1.54,0l-.71,0a26.49,26.49,0,0,0-12.1,3.26h0a26.74,26.74,0,0,0-3.85,2.52l-.61.53a14.58,14.58,0,0,0-3.77,5.08,72.21,72.21,0,0,1-12,1.15c-.64,0-1.27,0-1.89,0a70.92,70.92,0,0,1-10.4-1c-2-4.71-6.16-7.07-8.3-8.25a26.46,26.46,0,0,0-12.1-3.26l-.71,0c-.53,0-1,0-1.54,0a34.4,34.4,0,0,0-5.53.59c-1.24.24-2.44.52-3.58.82-6-1.5-12.08-4-16.68-8.3L1385,581.8a23.55,23.55,0,0,0,4.45,5.51,10.15,10.15,0,0,0,1.12,4.42,6.86,6.86,0,0,0,1.73,2.34l.38,3a2.63,2.63,0,0,0,1.46.42h0a1.21,1.21,0,0,0,1.2-.63l-.68-3.59h0a6.85,6.85,0,0,0,.64-1.57l10.12,5.44h0l.11.06a56.26,56.26,0,0,0,7,2.29l1.32.33a15.54,15.54,0,0,0,3.64.43h.6a14.91,14.91,0,0,0,2.21-.22,75.72,75.72,0,0,0,17.48-5.23A22.85,22.85,0,0,1,1437.53,604Z" transform="translate(-1183 -389.47)"/><path class="cls-5" d="M1416.31,504.44c-5.55-11.55-11.77-14-16-14.08h-.41a10.29,10.29,0,0,0-4.52,1.24c-9,7.67-14.61,14.26-17.8,20h26.21l-16.33,22.58-.18-.09-.07.09a18.65,18.65,0,0,1-5.17-3.66,21,21,0,0,1-5.64-13H1375c-3.62,11.82,3.66,19.4,9.49,25.23a5.81,5.81,0,0,1,.54.58,7.45,7.45,0,0,1,1.38,2.37c.07.27.13.56.19.86a2.52,2.52,0,0,1,.06.48c0,.09,0,.21,0,.33a67.89,67.89,0,0,1-14.93,2c-.74,0-1.5,0-2.25,0s-1.27,0-1.9,0a68.36,68.36,0,0,1-15.17-2.15c0-.25,0-.49.07-.71a6.27,6.27,0,0,1,2.11-3.79c5.81-5.81,13.08-13.37,9.51-25.14h-1.31a22.33,22.33,0,0,1-5.85,12.2,23.4,23.4,0,0,1-16.67,6.77c-.29,0-.59,0-.88,0a20.35,20.35,0,0,1-7.07-1.48l17-23.47h12.23c-3.19-5.72-8.79-12.31-17.8-20a10.29,10.29,0,0,0-4.52-1.24h-.41c-4.27,0-10.48,2.53-16,14.08a255.83,255.83,0,0,0-13,35.29h0l.57.51a66.72,66.72,0,0,0,8.93,6.91c1.13.76,2.3,1.49,3.5,2.19a92.62,92.62,0,0,0,12.57,6.12c1.06.42,2.12.83,3.2,1.21s2.15.75,3.24,1.1a1.53,1.53,0,0,0,.26.08c1.54.49,3.1.95,4.66,1.37,1.2.31,2.39.61,3.6.87s2.29.5,3.44.72c1.7.32,3.4.59,5.11.82h.1l1.47.19c2.39.29,4.76.47,7.1.56l-.83-.48,0,0c-5.92-3.44-12.39-8-13.9-12.6l.28.06s0,0,0-.06a72.18,72.18,0,0,0,14.63,2c.61,0,1.23,0,1.85,0h.13c.69,0,1.39,0,2.08,0a71.62,71.62,0,0,0,14.42-1.91s0,0,0,.06l.28-.06-.09.3c-.14.36-.28.71-.45,1.08a4.92,4.92,0,0,1-.26.51c-.1.18-.2.36-.31.53-1.84,3-5.15,5.69-8.17,7.77-.33.22-.65.44-1,.65-.94.65-1.85,1.21-2.64,1.68h0c-.28.19-.56.34-.8.48.87,0,1.73-.07,2.59-.12,1.84-.12,3.72-.3,5.74-.56l.1,0c1.32-.18,2.65-.38,4-.62l1.08-.2c.79-.16,1.58-.31,2.35-.49.34-.06.67-.14,1-.22q2.85-.65,5.66-1.47c.69-.19,1.38-.4,2.05-.61,2.4-.75,4.76-1.59,7.06-2.49,1.07-.42,2.11-.85,3.15-1.31s2-.89,3-1.37l1.55-.76q2.15-1.06,4.2-2.22l.58-.33,2.36-1.4c1.06-.66,2.08-1.33,3.08-2h0l.87-.6h0c.85-.6,1.67-1.21,2.47-1.83l1.19-.95c.4-.31.78-.63,1.15-1h0c.18-.15.37-.31.55-.48h0l.54-.48h0l.22-.2.24-.21.06-.06C1425.19,525.68,1420.18,512.45,1416.31,504.44Zm-92.06,23.49-.13.19a27.87,27.87,0,0,1-2.75-5.55,26.23,26.23,0,0,1-1.63-11h16.6l-12,16.53Zm3.6,4.19-.1.14a14.87,14.87,0,0,1-1.56-1.5l13.86-19.17H1343l-15,20.67A1.07,1.07,0,0,1,1327.85,532.12Zm68.07,4.12h-.26a22.3,22.3,0,0,1-3.16-.35l17.58-24.3h3.69Zm22.35-16.51c-.8,2.72-3.33,9.57-10,13.53a22.61,22.61,0,0,1-10.8,3h-.25l17.84-24.66h4.14A24.18,24.18,0,0,1,1418.27,519.73Z" transform="translate(-1183 -389.47)"/><path class="cls-6" d="M1371.74,563.45l0,0" transform="translate(-1183 -389.47)"/><path class="cls-7" d="M1348.39,562.7l.56.15.27.06.14,0C1349,562.86,1348.72,562.79,1348.39,562.7Zm-2.54-.63c.33.09.67.19,1,.27a1.5,1.5,0,0,0,.29.06C1346.72,562.3,1346.28,562.19,1345.85,562.07Zm-3-.85.28.1.38.1.61.17Zm-2.18-.67h0c.31.11.63.21.94.29C1341.28,560.75,1341,560.66,1340.65,560.55Zm-3.12-1,.34.13.83.28Zm-27.37-7.26c-.06,0-.1-.07-.15-.09q.09.87.21,1.83l.06,0C1310.24,553.38,1310.2,552.79,1310.16,552.24Z" transform="translate(-1183 -389.47)"/><path class="cls-7" d="M1392,568.81h.07l.13,0Zm15-11.16.11,0a.24.24,0,0,0,.11-.06Zm8.15-3.8.07,0c.08-.05.17-.09.25-.15Zm8-8.25h0Zm5.94-4.71h0a2.18,2.18,0,0,0,.22-.21Zm-.56.5h0l.54-.49-.54.48Zm2.5,8.55c-.07.08-.15.14-.22.21s.07.23.1.35c-.09.58-.15,1.22-.2,1.91a.3.3,0,0,0,.1-.07c.11-.85.18-1.64.23-2.4Z" transform="translate(-1183 -389.47)"/><path class="cls-7" d="M1351.07,569.19a.08.08,0,0,0,0,0c0-.3-.1-.62-.16-.94a11.74,11.74,0,0,0-3.14-.66,2.83,2.83,0,0,0-2,.56h0l0,0h0l-.06.06c-1.13,1.15,0,3.11.36,6,.78,6.1-2.47,9.87-3,14.36a.29.29,0,0,0,0,.13h0a9.58,9.58,0,0,0,.29,3.75,8.29,8.29,0,0,0,1,2.43,2,2,0,0,0,.22.27,1.12,1.12,0,0,0,.73.4h.18a2,2,0,0,0,1.11-.75l.18-.2a.51.51,0,0,0,.09-.13,4.47,4.47,0,0,0,.82-3c.16-1.12.45-2.86.92-5l.09-.4,0-.13c1.24-5.52,2.34-7.53,2.63-11.38A24.83,24.83,0,0,0,1351.07,569.19Zm-6.25,18.7c-.22,1.86-.44,3.56-.56,4.38h0c0,.32-.07.5-.07.5a8.45,8.45,0,0,1-.13-4.55.5.5,0,0,0,0-.12h0a30.75,30.75,0,0,1,1.1-4.17c0,.31,0,.64-.07,1v0c-.07.91-.16,1.89-.27,2.83C1344.83,587.81,1344.82,587.85,1344.82,587.89Z" transform="translate(-1183 -389.47)"/><path class="cls-7" d="M1389.81,572.34a16.87,16.87,0,0,0-1.94-4.38c-.09-.16-.19-.31-.27-.44l.49-.11L1390,567l2.73-.61a18,18,0,0,1,1,2.09s0,0,0,0a17,17,0,0,1,1,3.31,17.28,17.28,0,0,1,0,5.42,50.58,50.58,0,0,0-.88,6.94,45,45,0,0,1-3.58-4c0-.32.09-.64.11-1A17.77,17.77,0,0,0,1389.81,572.34Z" transform="translate(-1183 -389.47)"/><path class="cls-7" d="M1395.2,591c0,.15-.07.29-.11.42s0,.08,0,.12a9.67,9.67,0,0,1-.5,1.33,3,3,0,0,1-.19.36h0c-.39.72-.82,1-1.23,1.1h0a1.23,1.23,0,0,1-.86-.27,6.86,6.86,0,0,1-1.73-2.34,10.15,10.15,0,0,1-1.12-4.42,2.18,2.18,0,0,1,0-.25,29.21,29.21,0,0,1,.48-4.77l.21.31.16.23q.24.34.51.69t.72.93a24.27,24.27,0,0,0,2.56,2.69c0,.22.08.45.13.68A18,18,0,0,0,1395.2,591Z" transform="translate(-1183 -389.47)"/><path class="cls-7" d="M1344.39,594.16l-.51,4s1.32,1.48,2.39.41l.31-4.42Z" transform="translate(-1183 -389.47)"/><path class="cls-7" d="M1395.05,596.83a1.18,1.18,0,0,1-1,.63h0a2.63,2.63,0,0,1-1.46-.42l-.38-3,0-.22-.1-.78,2.1-.6v.07l.13.69.07.32Z" transform="translate(-1183 -389.47)"/><path class="cls-4" d="M1336.09,511.59l-11.84,16.34-.13.19a27.87,27.87,0,0,1-2.75-5.55,26.23,26.23,0,0,1-1.63-11Z" transform="translate(-1183 -389.47)"/><path class="cls-4" d="M1342.71,511.59l-14.86,20.53-.1.14a14.87,14.87,0,0,1-1.56-1.5l13.86-19.17Z" transform="translate(-1183 -389.47)"/><path class="cls-4" d="M1403.49,511.59l-16.25,22.49-.07.09a18.65,18.65,0,0,1-5.17-3.66,21,21,0,0,1-5.64-13h-1.64l-10.37.09h-1.82a22.29,22.29,0,0,1-5.86,12.2,23.38,23.38,0,0,1-16.41,6.77c-.29,0-.59,0-.88,0a20.35,20.35,0,0,1-7.07-1.48l17-23.47Z" transform="translate(-1183 -389.47)"/><path class="cls-4" d="M1413.51,511.59l-17.84,24.64h0a22.3,22.3,0,0,1-3.16-.35l17.58-24.3Z" transform="translate(-1183 -389.47)"/><path class="cls-4" d="M1418,519.73c-.8,2.72-3.34,9.57-10,13.53a22.49,22.49,0,0,1-10.53,3h-.26l17.84-24.66h3.89A24.18,24.18,0,0,1,1418,519.73Z" transform="translate(-1183 -389.47)"/><path class="cls-4" d="M1509.58,524.33l-.09,0-2.21,1h0l-.14.07-1.67.76h0l-.06,0h0l-.27.13h0l-.1.05h0l-46.22,21.27-.27.12-8.45,3.89-.22.1L1427.73,562h0l-.29.13L1412,569.24l-.09,0-17,7.81-.28.13-4.08,1.89-.27.12-.44.19h0l-.19.09c-.86-1.1-1.61-2.16-2.26-3.15l-.38-.59c-.06-.09-.12-.18-.17-.27-.19-.29-.36-.58-.53-.85a28.37,28.37,0,0,0,2.2,5.39l-3.42,1.57-.21.1-76.23,35.08-.18.08-10.11,4.65-.2.09-12.49,5.75h0l-.3.14-.13.06-.21.1-4.7-10.22.77-.36.13-.06h0l12.14-5.58.23-.11,8.58-4,.23-.1,4.34-2,.15-.07,19.53-9,.24-.11L1343,588.6l.27-.12.81-.37h0l.28-.12.47-.22.26-.12,3.57-1.64.27-.13h0l33.34-15.34.29-.13,5.3-2.44.2-.09,1.65-.76h0l.2-.09h0l4.1-1.89h0l34-15.63.27-.12,2.74-1.27.27-.12,3-1.39.44-.2,18.55-8.54.3-.14,49.52-22.78.32-.15h0l1.74-.8-.13.18h0c-.08.12-.17.24-.25.38l-.15.27c-.07.14-.14.28-.2.43a6.93,6.93,0,0,0,4.24,8.86l.14,0,.63.18Z" transform="translate(-1183 -389.47)"/><path class="cls-4" d="M1510,524.16l-.13-.06-.15-.06-.37-.17a7.83,7.83,0,0,1-4.62-6,6.87,6.87,0,0,1,.66-3.74l4.4,9.54,0,.12.06.13Z" transform="translate(-1183 -389.47)"/><path class="cls-4" d="M1509.67,524l-.37-.17.44-.17.15-.06-.1.18Z" transform="translate(-1183 -389.47)"/><path class="cls-4" d="M1518.13,584.83a30.48,30.48,0,0,0-4.62-13.78c-1.28-2.2-2.68-4.33-4-6.55a50.7,50.7,0,0,1-3-5.52,32.43,32.43,0,0,1-2.61-8.94c-.1-.72-.18-1.47-.23-2.27-.4-5.45.43-12.71,4.94-21.75.27-.55.56-1.1.85-1.65l0,0c-.24-.06-.5-.14-.77-.23l-2.33.92-47.65,18.82c-.13,1.39-.22,2.72-.28,4-.53,12.61,2.58,20.87,5.61,26.16,5.1,8.88,11,11.18,15.57,20.6a39,39,0,0,1,3,8.84,45.56,45.56,0,0,1,.9,11.88c-.07,1.61-.22,3.11-.39,4.46l2.9-1.25,8.64-3.73,16.39-7.07C1514.73,602.31,1518.79,594.26,1518.13,584.83Zm-6.16,20.5a42,42,0,0,0,.66-18.66,27.52,27.52,0,0,0-2.36-7c-.78-1.69-1.75-3.61-3-6.41-.18-.4-.35-.81-.53-1.21-.86-2-1.73-4-2.55-6a91.7,91.7,0,0,1-3.26-9.26c-1.82-6.41-2.59-13-1-19.55a31.75,31.75,0,0,1,5.44-11.36,40.93,40.93,0,0,0-5.14,15.18,35.1,35.1,0,0,0,1.28,13.83h0c.71,2.57,1.61,5.09,2.54,7.67.23.64.46,1.25.68,1.83a58.29,58.29,0,0,0,2.64,5.9c1.44,2.84,2.74,4.78,3.83,6.85a25,25,0,0,1,2.46,6.64C1514.89,589,1515.14,596.18,1512,605.33Z" transform="translate(-1183 -389.47)"/><path class="cls-4" d="M1285.1,621.79c-1.44-3.8-4.84-6-7.61-5s-3.85,5-2.41,8.77,4.83,6,7.6,5S1286.53,625.59,1285.1,621.79Zm-7.89,6.09a6.9,6.9,0,0,1-1.66-7.25,5.46,5.46,0,0,1,1.24-1.83,7.17,7.17,0,0,0-1.07,4.5c.34,3,2.86,5.66,6.35,6.63A7.38,7.38,0,0,1,1277.21,627.88Z" transform="translate(-1183 -389.47)"/><path class="cls-4" d="M1513.4,517.1a9.33,9.33,0,0,0-1.52-2.66c-1.68-2.09-4.06-3.09-6.09-2.33a4.59,4.59,0,0,0-2.61,2.8,8.7,8.7,0,0,0,.19,6,9,9,0,0,0,3.05,4.13,6,6,0,0,0,.71.45,5.23,5.23,0,0,0,1.51.56,4.69,4.69,0,0,0,.73.09,4,4,0,0,0,1.61-.24C1513.75,524.83,1514.83,520.9,1513.4,517.1Zm-3.64,7.27-.18,0h-.06c-.24-.06-.5-.14-.77-.23a6.93,6.93,0,0,1-4.24-8.86,5.59,5.59,0,0,1,.74-1.27,4.79,4.79,0,0,1,.5-.56,8,8,0,0,0-.41.76,6.87,6.87,0,0,0-.66,3.74,7.83,7.83,0,0,0,4.62,6l.37.17.15.06.13.06a9.81,9.81,0,0,0,1.08.37A7.86,7.86,0,0,1,1509.76,524.37Z" transform="translate(-1183 -389.47)"/><path class="cls-7" d="M1386.49,566.39c.23.08.47.19.71.28-.63.1-1.26.18-1.9.27A8.05,8.05,0,0,1,1386.49,566.39Z" transform="translate(-1183 -389.47)"/><path class="cls-7" d="M1451.85,583a3.28,3.28,0,0,1-.2.31,2.81,2.81,0,0,0,.17-.35A.07.07,0,0,0,1451.85,583Z" transform="translate(-1183 -389.47)"/></g></svg>